<svg width="440" height="617" viewBox="0 0 440 617" fill="none" xmlns="http://www.w3.org/2000/svg">
<g clip-path="url(#clip0_522_628)">
<path d="M383.878 281.957C383.623 281.957 383.368 281.957 383.138 281.957C383.138 256.295 384.464 230.555 382.908 204.969C377.449 115.635 294.873 47.6263 205.791 58.1618C124.873 67.7279 64.643 134.308 63.3165 215.632C62.8573 244.101 48.7757 262.621 21.3267 270.605C16.6583 271.958 11.7859 272.493 7.0665 273.692C2.34711 274.891 -0.30595 278.207 0.255274 283.054C0.816499 288.105 4.08181 291.064 9.33691 290.937C12.5002 290.86 15.6634 290.273 18.7757 289.661C50.3573 283.564 74.0053 261.805 79.3114 232.749C81.3522 221.551 80.9696 209.944 82.3726 198.592C92.3471 117.574 172.143 60.7383 251.735 77.7786C319.439 92.2936 365.791 149.052 366.174 218.438C366.429 264.05 366.531 309.686 366.072 355.297C365.868 375.067 373.393 391.164 386.454 405.066C398.036 417.388 412.755 423.28 429.541 424.199C434.209 424.454 438.572 422.872 439.26 418C439.694 414.99 438.112 411.163 436.25 408.587C435.102 407.031 431.684 406.852 429.235 406.572C402.347 403.51 383.929 382.924 383.929 355.807C383.929 331.191 383.929 306.574 383.929 281.983L383.878 281.957ZM302.577 293.513C302.577 316.217 302.322 338.92 302.704 361.624C302.857 371.317 303.521 381.164 305.434 390.654C318.776 456.468 367.347 484.733 416.505 489.223C423.163 489.835 427.475 486.416 427.679 480.83C427.883 475.294 424.516 472.157 417.857 471.672C354.694 466.978 321.607 419.811 320.485 366.726C319.49 318.155 320.332 269.534 320.204 220.964C320.204 214.408 319.924 207.75 318.827 201.321C310.128 149.588 265.026 115.125 211.633 119.13C163.087 122.778 123.878 165.557 123.138 216.041C122.857 234.586 118.929 252.213 111.378 269.024C99.4389 295.579 81.5563 316.268 53.393 326.395C40.4594 331.038 27.0155 332.313 13.3165 332.058C7.3216 331.956 3.59711 335.527 3.46956 340.578C3.3165 345.782 6.88793 349.43 12.7808 349.634C40.5614 350.604 66.4543 344.481 88.5461 327.007C118.903 303.003 134.286 270.427 139.669 232.749C141.276 221.449 140.587 209.714 143.112 198.668C152.424 157.904 189.924 132.369 232.245 137.012C271.199 141.297 302.092 176.067 302.526 216.551C302.806 242.213 302.577 267.901 302.602 293.564L302.577 293.513ZM261.99 228.183C262.424 199.969 245.408 181.807 223.47 181.45C201.225 181.092 184.031 198.388 182.806 220.913C182.067 234.611 180.638 248.463 177.704 261.83C164.949 320.043 132.066 362.134 76.3522 385.169C55.2043 393.919 33.1379 398.664 10.2553 399.735C3.67364 400.041 -0.0763582 403.612 0.000172393 408.689C0.076703 414.046 4.36242 417.49 11.1226 417.183C16.6328 416.928 22.143 416.495 27.5767 415.678C70.3318 409.429 108.929 393.791 140.868 364.022C177.449 329.915 194.209 286.37 199.592 237.698C200.332 230.964 200.128 224.127 200.944 217.393C202.322 206.143 212.908 198.26 224.745 199.204C236.072 200.097 245.485 209.918 244.133 221.831C241.939 241.167 239.847 260.708 234.975 279.483C210.485 373.945 151.123 433.203 55.1277 454.3C45.0002 456.519 34.6685 457.693 24.4389 459.453C18.0869 460.55 14.643 464.529 15.4338 469.606C16.1992 474.631 20.0767 477.386 26.2247 476.978C30.0257 476.723 33.8012 476.136 37.5767 475.575C80.4849 469.146 120.97 455.984 156.429 430.372C227.118 379.327 254.643 306.089 261.964 228.158L261.99 228.183ZM253.214 429.454C254.031 431.367 254.669 432.668 255.179 434.045C267.066 466.187 286.301 493.151 312.577 515.115C329.822 529.528 349.158 540.344 370.281 548.022C376.327 550.216 381.072 548.507 383.087 543.634C385.204 538.43 382.832 534.145 376.327 531.441C374.567 530.701 372.781 530.038 371.021 529.324C318.087 507.36 283.648 468.789 267.245 413.944C265.663 408.663 265.944 401.954 258.75 400.347C251.097 398.613 248.597 405.066 245.204 409.684C214.924 450.652 177.092 482.156 129.924 501.901C107.322 511.365 83.9032 517.742 59.3114 519.349C51.8369 519.834 47.9083 523.507 48.342 528.966C48.7757 534.477 52.8828 537.334 60.5614 536.9C66.9134 536.543 73.291 536.109 79.541 535.038C136.072 525.446 184.286 499.579 225.102 459.657C234.771 450.193 243.597 439.887 253.265 429.479L253.214 429.454ZM3.49507 213.209C3.49507 216.602 3.29099 220.02 3.54609 223.387C3.92874 228.285 6.76038 231.244 11.6583 231.576C16.5818 231.907 19.7451 229.254 20.8165 224.51C21.3267 222.265 21.1736 219.867 21.1736 217.546C21.4543 173.746 33.8267 133.568 60.6379 99.0281C110.281 35.0501 175.868 8.97933 256.097 20.8668C266.505 22.3974 276.607 25.9687 286.888 28.4942C291.148 29.54 295.612 29.0043 297.194 24.6422C298.265 21.7596 297.781 17.6271 296.454 14.7955C295.536 12.8313 292.092 11.6833 289.566 10.867C246.148 -3.13771 202.628 -3.52036 158.801 9.28545C69.4389 35.3817 4.48997 120.456 3.49507 213.209ZM439.949 280.427C439.949 259.866 440.051 239.28 439.949 218.719C439.72 181.577 431.046 146.552 413.291 113.875C409.822 107.497 404.796 105.508 399.873 108.339C395.179 111.043 394.362 115.89 397.781 122.216C414.771 153.67 422.5 187.317 422.347 222.979C422.143 268.565 422.296 314.176 422.296 359.787C422.296 361.904 421.582 364.608 422.628 366.011C424.694 368.843 427.577 372.618 430.383 372.873C433.163 373.103 436.811 369.914 439.031 367.338C440.383 365.756 439.975 362.491 439.975 359.966C440.026 333.461 440 306.957 440 280.427H439.949ZM242.934 532.104C262.194 557.359 288.623 574.756 316.658 590.113C318.98 591.388 322.322 592.919 324.286 592.128C327.22 590.929 330.51 588.225 331.607 585.368C333.342 580.827 330.128 577.639 326.174 575.139C311.862 566.108 297.322 557.384 283.521 547.639C271.735 539.298 261.403 529.145 254.056 516.416C247.73 505.472 243.776 504.707 234.618 513.125C210.868 534.987 184.388 552.741 154.873 565.7C143.087 570.879 130.765 574.833 118.648 579.297C111.301 582.001 108.316 589.73 113.699 593.863C116.429 595.955 121.964 596.745 125.179 595.47C146.148 587.052 167.577 579.297 187.373 568.608C206.633 558.226 224.158 544.629 242.908 532.104H242.934ZM219.873 617C222.066 616.643 222.781 616.719 223.291 616.413C233.061 610.546 243.061 605.01 252.296 598.429C254.133 597.102 254.184 591.21 253.01 588.225C251.403 584.195 246.888 582.588 242.806 584.909C233.623 590.138 224.49 595.495 215.944 601.669C213.903 603.148 213.112 608.301 213.878 611.184C214.592 613.76 218.24 615.546 219.873 617.051V617ZM374.567 67.0391C373.878 64.5137 373.929 62.8555 373.163 62.1923C365.077 55.1772 357.118 47.9069 348.419 41.7336C346.709 40.5092 341.072 42.7285 338.75 44.9478C335.536 48.0345 336.25 52.7027 339.643 55.7384C346.429 61.7841 353.342 67.7534 360.714 73.0339C362.755 74.5134 367.041 74.4624 369.464 73.34C371.862 72.2431 373.214 68.8758 374.592 67.0646L374.567 67.0391Z" fill="white"/>
<path d="M383.878 281.957C383.878 306.574 383.878 331.191 383.878 355.782C383.878 382.899 402.296 403.485 429.184 406.546C431.633 406.827 435.051 407.005 436.199 408.561C438.087 411.138 439.643 414.964 439.21 417.974C438.521 422.847 434.159 424.428 429.49 424.173C412.73 423.255 397.985 417.388 386.403 405.041C373.342 391.138 365.817 375.042 366.021 355.272C366.48 309.661 366.378 264.05 366.123 218.413C365.74 149.027 319.388 92.2682 251.684 77.7533C172.092 60.6874 92.2963 117.548 82.3218 198.567C80.9187 209.918 81.3269 221.525 79.2606 232.724C73.9545 261.754 50.3065 283.539 18.7249 289.636C15.6126 290.248 12.4494 290.809 9.28609 290.911C4.03098 291.064 0.765676 288.105 0.204451 283.029C-0.331263 278.207 2.29629 274.866 7.01568 273.667C11.7351 272.468 16.6075 271.932 21.2759 270.58C48.7249 262.596 62.8065 244.076 63.2657 215.607C64.5922 134.282 124.822 67.7025 205.74 58.1364C294.822 47.6009 377.398 115.609 382.858 204.944C384.414 230.505 383.087 256.269 383.087 281.932C383.342 281.932 383.597 281.932 383.827 281.932L383.878 281.957Z" fill="#F4F4F4"/>
<path d="M302.576 293.539C302.576 267.85 302.78 242.188 302.525 216.525C302.092 176.042 271.199 141.272 232.245 136.986C189.923 132.344 152.423 157.879 143.112 198.643C140.586 209.689 141.301 221.423 139.668 232.724C134.285 270.401 118.903 302.977 88.5457 326.982C66.4538 344.456 40.561 350.578 12.7804 349.609C6.913 349.405 3.34158 345.782 3.46913 340.553C3.59668 335.476 7.32117 331.931 13.3161 332.033C26.9895 332.262 40.4589 331.012 53.3926 326.369C81.5814 316.242 99.4385 295.554 111.377 268.998C118.954 252.162 122.882 234.535 123.137 216.015C123.877 165.557 163.086 122.752 211.632 119.104C265.025 115.099 310.102 149.588 318.826 201.296C319.923 207.75 320.178 214.382 320.204 220.938C320.306 269.534 319.464 318.13 320.484 366.7C321.581 419.811 354.668 466.978 417.857 471.646C424.515 472.131 427.857 475.269 427.678 480.804C427.474 486.391 423.189 489.809 416.505 489.197C367.347 484.707 318.775 456.468 305.433 390.628C303.52 381.164 302.882 371.292 302.704 361.598C302.321 338.895 302.576 316.191 302.576 293.488V293.539Z" fill="#F4F4F4"/>
<path d="M261.99 228.209C254.694 306.14 227.168 379.404 156.454 430.423C120.969 456.035 80.5102 469.223 37.6021 475.626C33.8266 476.187 30.0511 476.774 26.25 477.029C20.1021 477.437 16.2245 474.682 15.4592 469.657C14.6939 464.58 18.1123 460.601 24.4643 459.504C34.6939 457.744 45.0511 456.57 55.1531 454.351C151.174 433.255 210.51 373.996 235 279.534C239.872 260.784 241.964 241.218 244.158 221.882C245.51 209.969 236.097 200.174 224.77 199.255C212.934 198.311 202.347 206.194 200.969 217.444C200.153 224.178 200.357 231.015 199.617 237.749C194.235 286.447 177.475 329.966 140.893 364.073C108.954 393.842 70.3317 409.48 27.6021 415.729C22.1684 416.52 16.6327 416.954 11.148 417.234C4.3878 417.541 0.102086 414.122 0.0255555 408.74C-0.0509751 403.663 3.72454 400.092 10.2807 399.786C33.1633 398.715 55.2296 393.97 76.3776 385.22C132.066 362.159 164.949 320.069 177.73 261.881C180.663 248.514 182.092 234.663 182.832 220.964C184.031 198.413 201.25 181.143 223.495 181.501C245.459 181.858 262.449 200.021 262.015 228.234L261.99 228.209Z" fill="#F4F4F4"/>
<path d="M253.215 429.454C243.546 439.862 234.72 450.167 225.051 459.631C184.235 499.554 136.021 525.421 79.4902 535.012C73.2402 536.084 66.8627 536.517 60.5106 536.874C52.832 537.308 48.7249 534.451 48.2912 528.941C47.8576 523.482 51.7861 519.809 59.2606 519.324C83.8525 517.717 107.296 511.339 129.873 501.875C177.041 482.131 214.898 450.627 245.153 409.658C248.572 405.041 251.046 398.587 258.699 400.322C265.893 401.954 265.587 408.638 267.194 413.918C283.597 468.738 318.036 507.334 370.97 529.298C372.73 530.038 374.516 530.701 376.276 531.415C382.781 534.119 385.154 538.405 383.036 543.609C381.046 548.481 376.301 550.19 370.23 547.997C349.108 540.344 329.796 529.502 312.526 515.089C286.25 493.151 267.016 466.187 255.128 434.02C254.618 432.668 253.98 431.341 253.164 429.428L253.215 429.454Z" fill="#F4F4F4"/>
<path d="M3.49525 213.209C4.49015 120.456 69.4391 35.3817 158.801 9.25989C202.628 -3.54592 246.148 -3.13776 289.567 10.8415C292.092 11.6578 295.536 12.8057 296.454 14.77C297.781 17.627 298.266 21.7341 297.194 24.6166C295.587 28.9533 291.123 29.5145 286.888 28.4686C276.608 25.9431 266.505 22.3973 256.097 20.8412C175.868 8.95377 110.281 34.999 60.6381 98.9771C33.8269 133.543 21.4544 173.695 21.1738 217.495C21.1738 219.816 21.3014 222.214 20.8167 224.459C19.7453 229.203 16.6075 231.856 11.6585 231.525C6.73505 231.193 3.90342 228.234 3.54627 223.336C3.29117 219.969 3.49525 216.551 3.49525 213.158V213.209Z" fill="#F4F4F4"/>
<path d="M439.949 280.427C439.949 306.931 439.949 333.436 439.923 359.966C439.923 362.491 440.332 365.756 438.98 367.338C436.76 369.914 433.112 373.103 430.332 372.874C427.526 372.644 424.643 368.843 422.577 366.011C421.556 364.608 422.245 361.904 422.245 359.787C422.245 314.176 422.092 268.59 422.296 222.979C422.449 187.291 414.719 153.67 397.73 122.216C394.311 115.89 395.153 111.043 399.821 108.339C404.745 105.508 409.77 107.497 413.24 113.875C430.995 146.553 439.668 181.603 439.898 218.719C440.026 239.28 439.898 259.866 439.923 280.427H439.949Z" fill="#F4F4F4"/>
<path d="M242.933 532.104C224.158 544.629 206.658 558.226 187.398 568.608C167.576 579.297 146.173 587.052 125.204 595.47C121.989 596.745 116.454 595.955 113.724 593.863C108.341 589.756 111.326 582.026 118.673 579.297C130.765 574.833 143.086 570.853 154.898 565.7C184.438 552.741 210.918 534.987 234.643 513.125C243.801 504.681 247.755 505.472 254.081 516.416C261.428 529.145 271.76 539.298 283.546 547.639C297.347 557.41 311.887 566.134 326.199 575.139C330.153 577.639 333.367 580.827 331.632 585.368C330.535 588.225 327.245 590.955 324.311 592.128C322.347 592.919 318.979 591.388 316.683 590.113C288.648 574.756 262.194 557.333 242.959 532.104H242.933Z" fill="#F4F4F4"/>
<path d="M219.873 617C218.214 615.495 214.566 613.709 213.878 611.133C213.087 608.25 213.878 603.097 215.944 601.618C224.49 595.444 233.623 590.087 242.806 584.858C246.888 582.537 251.403 584.144 253.01 588.174C254.184 591.159 254.158 597.052 252.296 598.378C243.061 604.985 233.061 610.495 223.291 616.362C222.781 616.668 222.066 616.592 219.873 616.949V617Z" fill="#F4F4F4"/>
<path d="M374.567 67.0392C373.189 68.8503 371.837 72.2176 369.439 73.3145C367.016 74.4369 362.73 74.488 360.689 73.0084C353.317 67.7279 346.403 61.7587 339.618 55.7129C336.225 52.6773 335.511 48.0345 338.725 44.9224C341.021 42.703 346.659 40.4837 348.393 41.7082C357.092 47.8815 365.051 55.1517 373.138 62.1668C373.929 62.8556 373.852 64.5137 374.541 67.0137L374.567 67.0392Z" fill="#F4F4F4"/>
</g>
<defs>
<clipPath id="clip0_522_628">
<rect width="440" height="617" fill="white"/>
</clipPath>
</defs>
</svg>
