<svg width="48" height="49" viewBox="0 0 48 49" fill="none" xmlns="http://www.w3.org/2000/svg">
<g clip-path="url(#clip0_522_3466)">
<path d="M18.5707 13.8479C18.2604 13.9255 17.9272 14.0122 17.5803 14.1035C16.8638 14.2906 16.2431 14.4002 15.6725 14.4641C15.102 14.4002 14.4768 14.2906 13.7648 14.1035C9.01818 12.8529 8.13275 12.9351 4.73711 14.9068C1.76136 16.4722 0.0544045 21.0089 0.903316 26.1069C1.88458 32.0037 4.16204 32.4099 4.16204 38.7995C4.16204 45.1892 6.46688 48.3201 8.31988 48.3201C10.1729 48.3201 11.1039 46.143 13.1349 40.7073C14.527 36.9785 16.5945 36.3851 18.2102 40.7073C20.2457 46.1476 21.1722 48.3201 23.0252 48.3201C24.8782 48.3201 27.1785 45.1481 27.1785 38.7995C27.1785 33.8612 28.5386 32.5331 29.6157 29.4113" stroke="white" stroke-width="1.5" stroke-miterlimit="10" stroke-linecap="round"/>
<path d="M47.3156 15.2582C47.3156 23.0718 40.9807 29.4067 33.1671 29.4067C25.3534 29.4067 19.0186 23.0718 19.0186 15.2582C19.0186 7.44457 25.3534 1.10968 33.1671 1.10968" stroke="white" stroke-width="1.5" stroke-miterlimit="10" stroke-linecap="round"/>
<path d="M37.2695 1.7121C41.6601 3.04023 45.1516 6.44501 46.5939 10.7854" stroke="white" stroke-width="1.5" stroke-miterlimit="10" stroke-linecap="round"/>
<path d="M33.1674 24.7742C38.4229 24.7742 42.6834 20.5138 42.6834 15.2582C42.6834 10.0027 38.4229 5.74219 33.1674 5.74219C27.9118 5.74219 23.6514 10.0027 23.6514 15.2582C23.6514 20.5138 27.9118 24.7742 33.1674 24.7742Z" stroke="white" stroke-width="1.5" stroke-miterlimit="10" stroke-linecap="round"/>
<path d="M30.35 18V17.25H30.6C31 17.25 31.2 17.05 31.2 16.65V15H30.35V14.3H31.2V12.95C31.2 12.3633 31.3967 11.8767 31.79 11.49C32.19 11.0967 32.71 10.9 33.35 10.9C33.99 10.9 34.5067 11.0867 34.9 11.46C35.3 11.8333 35.5 12.2967 35.5 12.85H34.7C34.7 12.51 34.5767 12.2267 34.33 12C34.09 11.7667 33.7633 11.65 33.35 11.65C32.95 11.65 32.6233 11.7733 32.37 12.02C32.1233 12.26 32 12.57 32 12.95V14.3H33.95V15H32V16.65C32 16.85 31.95 17.0133 31.85 17.14C31.7967 17.1933 31.7467 17.23 31.7 17.25H35.65V18H30.35Z" fill="white"/>
</g>
<defs>
<clipPath id="clip0_522_3466">
<rect width="48" height="48.5751" fill="white" transform="translate(0 0.425049)"/>
</clipPath>
</defs>
</svg>
