<svg width="41" height="49" viewBox="0 0 41 49" fill="none" xmlns="http://www.w3.org/2000/svg">
<g clip-path="url(#clip0_522_3473)">
<path d="M0.615234 8.08502H7.43763L9.05303 16.6927L12.743 36.3172H32.0417" stroke="white" stroke-width="1.5" stroke-linecap="round" stroke-linejoin="round"/>
<path d="M16.372 48.3875C18.4371 48.3875 20.1112 46.7202 20.1112 44.6635C20.1112 42.6068 18.4371 40.9395 16.372 40.9395C14.3069 40.9395 12.6328 42.6068 12.6328 44.6635C12.6328 46.7202 14.3069 48.3875 16.372 48.3875Z" stroke="white" stroke-width="1.5" stroke-miterlimit="10"/>
<path d="M30.6425 48.3875C32.7076 48.3875 34.3817 46.7202 34.3817 44.6635C34.3817 42.6068 32.7076 40.9395 30.6425 40.9395C28.5774 40.9395 26.9033 42.6068 26.9033 44.6635C26.9033 46.7202 28.5774 48.3875 30.6425 48.3875Z" stroke="white" stroke-width="1.5" stroke-miterlimit="10"/>
<path d="M38.9744 5.90039C37.7977 5.21847 37.4861 5.18989 35.8379 5.62272C35.5878 5.68805 35.3746 5.7248 35.1737 5.74522C34.9769 5.7248 34.7596 5.68397 34.5095 5.62272C32.8613 5.18989 32.5538 5.21847 31.373 5.90039C30.3398 6.44347 29.7453 8.01147 30.0405 9.77955C30.3808 11.8212 31.1721 11.9601 31.1721 14.1732C31.1721 16.3864 31.9716 17.4685 32.6153 17.4685C33.259 17.4685 33.5829 16.7171 34.2881 14.8347C34.7719 13.5444 35.4894 13.3402 36.0511 14.8347C36.7563 16.7171 37.0802 17.4685 37.7239 17.4685C38.3676 17.4685 39.1671 16.3701 39.1671 14.1732C39.1671 11.9764 39.9543 11.8416 40.2987 9.77955C40.5939 8.01555 39.9994 6.44347 38.9662 5.90039H38.9744Z" stroke="white" stroke-width="1.5" stroke-miterlimit="10" stroke-linecap="round"/>
<path d="M35.9447 20.9597L33.5872 29.4326H11.3857" stroke="white" stroke-width="1.5" stroke-linecap="round" stroke-linejoin="round"/>
<path d="M23.981 0.612488L25.047 3.36465L27.8104 4.42632L25.047 5.49207L23.981 8.24424L22.9109 5.49207L20.1475 4.42632L22.9109 3.36465L23.981 0.612488Z" stroke="white" stroke-width="1.5" stroke-linecap="round" stroke-linejoin="round"/>
<path d="M8.54883 13.9936H27.95" stroke="white" stroke-width="1.5" stroke-linecap="round" stroke-linejoin="round"/>
</g>
<defs>
<clipPath id="clip0_522_3473">
<rect width="41" height="49" fill="white"/>
</clipPath>
</defs>
</svg>
