<svg width="36" height="34" viewBox="0 0 36 34" fill="none" xmlns="http://www.w3.org/2000/svg">
<g clip-path="url(#clip0_522_253)">
<path d="M6.87545e-05 11.03C-0.00977115 7.5632 1.03607 4.74733 3.46512 2.53239C5.5301 0.650512 8.01116 -0.187726 10.8183 0.0939998C12.3154 0.243884 13.6691 0.88644 14.9891 1.56924C15.7242 1.9495 16.4693 2.31866 17.1777 2.74472C17.74 3.08335 18.2292 3.08335 18.8027 2.75305C19.7516 2.20625 20.7159 1.67194 21.7181 1.23478C22.6965 0.808723 23.7128 0.425687 24.7488 0.177269C26.2403 -0.179399 27.7444 0.0273849 29.1656 0.553366C33.0706 2.00085 35.1862 4.89167 35.8525 8.88024C36.18 10.8371 35.9087 12.78 35.5292 14.7021C34.4693 20.0743 32.5238 25.1287 29.7883 29.8834C29.0995 31.0797 28.3348 32.2343 27.2861 33.1683C27.0795 33.3529 26.8518 33.5236 26.6114 33.6624C25.5164 34.2883 24.4958 33.983 24.0432 32.8214C23.6538 31.8222 23.3684 30.7827 23.055 29.7557C22.4871 27.9002 21.967 26.0294 21.3583 24.1864C20.9703 23.0137 20.4868 21.8632 19.6349 20.9195C18.6031 19.7773 17.3225 19.8162 16.3442 21.0125C15.5204 22.0187 15.027 23.1983 14.6292 24.4043C13.9573 26.4458 13.3613 28.5108 12.7259 30.5634C12.5038 31.2809 12.2901 32.004 12.0104 32.6992C11.4622 34.0635 10.3165 34.3785 9.1076 33.5278C8.20514 32.8922 7.54447 32.0373 6.93861 31.1394C4.94814 28.1861 3.53822 24.9553 2.33353 21.6315C1.38187 19.0057 0.645285 16.3217 0.250284 13.5572C0.119553 12.644 0.0661367 11.7197 6.87545e-05 11.03ZM25.5206 6.04494C25.4784 6.10739 25.47 6.13653 25.4531 6.14208C25.3772 6.16984 25.2999 6.1976 25.2212 6.21425C23.2532 6.61255 21.3147 6.51402 19.4016 5.89505C18.1336 5.48565 17.047 4.76676 16.0082 3.97432C14.9272 3.14857 13.783 2.44079 12.4925 1.98281C9.69519 0.989138 7.11292 1.45822 4.84411 3.27903C2.47551 5.18172 1.42404 7.76166 1.50698 10.7399C1.54634 12.1874 1.75157 13.6432 2.02287 15.0699C2.6203 18.2008 3.64365 21.2096 4.89613 24.1434C5.9251 26.554 7.07496 28.9036 8.6634 31.0131C9.04294 31.5182 9.50823 31.9706 9.98617 32.3898C10.3193 32.6826 10.5063 32.5966 10.6483 32.1802C10.8802 31.5016 11.1065 30.8229 11.3202 30.1387C12.0019 27.9543 12.6415 25.7574 13.3655 23.5883C13.7858 22.3267 14.3607 21.1221 15.2224 20.0729C16.6857 18.291 18.8997 18.1522 20.5458 19.7635C21.4286 20.6267 22.0162 21.6911 22.4126 22.8291C23.0761 24.7374 23.651 26.6761 24.2568 28.6052C24.6364 29.8182 24.9976 31.0367 25.3786 32.2496C25.4812 32.5757 25.6119 32.6132 25.8917 32.4217C26.0828 32.2912 26.2909 32.158 26.4272 31.979C27.1385 31.0491 27.9257 30.1609 28.5091 29.1576C31.1631 24.5972 33.0158 19.7274 34.0602 14.5675C34.4074 12.8535 34.6759 11.1188 34.4369 9.36736C34.0166 6.28919 32.5758 3.82999 29.7236 2.35752C27.9763 1.45544 26.1067 1.17927 24.1837 1.80934C22.4069 2.39083 20.7834 3.28458 19.2146 4.27825C19.1288 4.33238 19.0586 4.41148 18.918 4.53361C20.997 5.67439 23.2546 5.81595 25.5248 6.0491L25.5206 6.04494Z" fill="white"/>
</g>
<defs>
<clipPath id="clip0_522_253">
<rect width="36" height="34" fill="white"/>
</clipPath>
</defs>
</svg>
