<svg width="36" height="36" viewBox="0 0 36 36" fill="none" xmlns="http://www.w3.org/2000/svg">
<g clip-path="url(#clip0_522_493)">
<path d="M18.0024 35.5157C27.6752 35.5157 35.5165 27.6744 35.5165 18.0016C35.5165 8.32883 27.6752 0.487488 18.0024 0.487488C8.32962 0.487488 0.488281 8.32883 0.488281 18.0016C0.488281 27.6744 8.32962 35.5157 18.0024 35.5157Z" stroke="white" stroke-width="1.5" stroke-miterlimit="10" stroke-linecap="round"/>
<path d="M20.2635 20.2636C20.2635 20.3611 20.2635 20.4326 20.2635 20.5041C20.2635 22.5776 20.257 24.6543 20.27 26.7278C20.27 27.1341 20.0198 27.3551 19.6428 27.3486C18.5345 27.3323 17.4263 27.3421 16.3213 27.3421C15.9183 27.3421 15.7298 27.1568 15.7298 26.7538C15.7298 24.6738 15.7298 22.5906 15.7298 20.5106C15.7298 20.4391 15.7298 20.3643 15.7298 20.2603H15.5121C13.4321 20.2603 11.3488 20.2603 9.26886 20.2603C8.83012 20.2603 8.65137 20.0816 8.65137 19.6429C8.65137 18.5346 8.65137 17.4264 8.65137 16.3214C8.65137 15.9086 8.83662 15.7234 9.25261 15.7234C11.3326 15.7234 13.4158 15.7234 15.4958 15.7234C15.5673 15.7234 15.6388 15.7234 15.7331 15.7234C15.7331 15.6324 15.7331 15.5641 15.7331 15.4926C15.7331 13.4191 15.7331 11.3424 15.7331 9.26892C15.7331 8.81718 15.9086 8.64493 16.3636 8.64493C17.4653 8.64493 18.567 8.64493 19.6688 8.64493C20.0848 8.64493 20.27 8.83018 20.27 9.23967C20.27 11.3197 20.27 13.4029 20.27 15.4829C20.27 15.5544 20.27 15.6259 20.27 15.7234H20.4975C22.5743 15.7234 24.6478 15.7299 26.7212 15.7169C27.1502 15.7169 27.3615 15.9704 27.355 16.3474C27.3387 17.4556 27.3485 18.5639 27.3485 19.6689C27.3485 20.0686 27.16 20.2571 26.757 20.2571C24.677 20.2571 22.5938 20.2571 20.5138 20.2571H20.27L20.2635 20.2636Z" stroke="white" stroke-width="1.5" stroke-miterlimit="10" stroke-linecap="round"/>
</g>
<defs>
<clipPath id="clip0_522_493">
<rect width="36" height="36" fill="white"/>
</clipPath>
</defs>
</svg>
