<svg width="45" height="36" viewBox="0 0 45 36" fill="none" xmlns="http://www.w3.org/2000/svg">
<g clip-path="url(#clip0_522_591)">
<path d="M15.7458 33.4027C15.7978 33.8642 15.8427 34.2871 15.8947 34.7071C15.9801 35.3994 15.6301 35.8352 14.9315 35.8452C13.8584 35.861 12.7853 35.861 11.7136 35.8452C11.0469 35.8352 10.6868 35.4496 10.7533 34.7931C10.8531 33.7954 10.9833 32.7992 11.1207 31.8059C11.1641 31.4919 11.0773 31.3013 10.8184 31.1021C10.386 30.7695 9.97524 30.3983 9.605 29.9983C8.98889 29.3304 8.70977 28.5348 8.71266 27.6131C8.72568 23.9078 8.70543 20.201 8.71555 16.4956C8.71555 16.1459 8.60419 15.9825 8.29614 15.832C5.73628 14.5777 3.18221 13.3106 0.636813 12.0249C0.418429 11.9145 0.142196 11.6421 0.146535 11.4501C0.150874 11.2551 0.431446 10.9928 0.652722 10.8824C7.74801 7.34335 14.8534 3.82147 21.9531 0.286685C22.3219 0.103209 22.6198 0.0917415 22.9944 0.278084C30.039 3.78706 37.0895 7.28314 44.1385 10.7821C44.2976 10.8609 44.4654 10.9312 44.61 11.0315C44.9354 11.2537 44.9368 11.6507 44.6143 11.8786C44.4827 11.9718 44.3294 12.0392 44.1833 12.1109C41.6698 13.3579 39.1576 14.6107 36.6368 15.8434C36.3071 16.004 36.2044 16.1961 36.2058 16.5501C36.2188 20.1824 36.1885 23.8146 36.2275 27.4454C36.2405 28.6982 35.7676 29.6758 34.8738 30.4957C33.5592 31.7041 31.9813 32.4624 30.3066 33.0228C25.68 34.5723 20.9928 34.6655 16.265 33.5202C16.1102 33.4829 15.954 33.4485 15.7443 33.4012L15.7458 33.4027ZM43.1811 11.4673C43.0278 11.3827 42.9396 11.3296 42.8484 11.2838C36.1841 7.97404 29.5198 4.66717 22.8599 1.35027C22.5721 1.20693 22.3551 1.22413 22.076 1.36317C16.1608 4.30739 10.2413 7.24157 4.32185 10.1801C3.48592 10.5957 2.64999 11.0129 1.78079 11.4458C1.89649 11.5146 1.97025 11.5647 2.04835 11.6034C5.70447 13.421 9.36492 15.2328 13.0152 17.0604C13.2741 17.1908 13.4202 17.0977 13.6097 16.9658C16.3546 15.0622 19.1011 13.1615 21.8475 11.2623C21.969 11.1777 22.0919 11.0344 22.2192 11.0301C22.4318 11.0229 22.7369 11.0401 22.8382 11.172C22.9394 11.3038 22.87 11.5963 22.8121 11.8012C22.7832 11.903 22.6154 11.9704 22.507 12.0449C19.9327 13.8281 17.3569 15.6112 14.7826 17.3944C14.6553 17.4833 14.5338 17.5807 14.3718 17.7026C14.5497 17.8 14.6741 17.8731 14.8043 17.9377C17.2253 19.1388 19.6492 20.3329 22.063 21.5455C22.3609 21.696 22.5851 21.7003 22.8859 21.5498C27.7626 19.1173 32.6466 16.6978 37.5277 14.2753C39.389 13.3522 41.2489 12.4276 43.1811 11.4673ZM13.8541 18.6128C13.8541 20.7772 13.8512 22.8428 13.8627 24.9069C13.8627 24.9957 13.9625 25.1162 14.0479 25.1663C14.6003 25.4903 14.8144 25.9862 14.8867 26.5954C15.095 28.3686 15.335 30.1374 15.5418 31.9091C15.5766 32.2072 15.6923 32.352 15.9844 32.405C17.3294 32.6487 18.6628 32.9827 20.0165 33.1346C23.5439 33.5302 27.0019 33.1533 30.3471 31.9463C31.7528 31.4389 33.0805 30.7767 34.1898 29.7504C34.8478 29.1412 35.2094 28.4388 35.1978 27.4913C35.1573 24.0526 35.1819 20.6138 35.1819 17.1736V16.606C34.9707 16.6992 34.8232 16.7594 34.68 16.8296C30.7969 18.7547 26.9108 20.6755 23.0349 22.6177C22.6285 22.8213 22.3074 22.8069 21.9111 22.6077C19.4323 21.3578 16.9418 20.1308 14.4543 18.8966C14.2851 18.8135 14.113 18.7361 13.8555 18.6142L13.8541 18.6128ZM11.2913 30.2004C11.3289 29.9797 11.3607 29.8249 11.3795 29.6686C11.5097 28.6151 11.637 27.5615 11.7657 26.5094C11.8322 25.9719 12.0275 25.4917 12.5293 25.2308C12.7969 25.0918 12.8215 24.914 12.82 24.6632C12.8128 22.9675 12.8171 21.2703 12.8157 19.5746C12.8157 19.0887 12.9748 18.4952 12.7506 18.1455C12.5163 17.78 11.9132 17.6424 11.4663 17.4159C10.9182 17.1364 10.3643 16.8669 9.72793 16.553C9.72793 16.821 9.72793 16.993 9.72793 17.1636C9.7366 20.6439 9.77131 24.1257 9.74094 27.606C9.73082 28.7986 10.4236 29.4852 11.2899 30.199L11.2913 30.2004ZM12.6248 28.0016C12.3442 30.2621 12.0636 32.5211 11.7816 34.7873H14.8693C14.8607 34.6497 14.8607 34.5465 14.8476 34.4448C14.622 32.6602 14.3921 30.877 14.1708 29.0939C14.0189 27.8683 14.0247 27.8669 12.7723 27.9543C12.7448 27.9557 12.7173 27.9715 12.6233 28.003L12.6248 28.0016ZM12.794 26.8936H13.8743C13.8613 26.2901 13.7109 26.0493 13.3566 26.0335C12.9878 26.0178 12.8243 26.26 12.794 26.8936Z" fill="white"/>
<path d="M15.7453 33.4027L15.6021 33.4184C15.6542 33.88 15.699 34.3014 15.7511 34.7243C15.7583 34.7873 15.7627 34.8475 15.7627 34.9034C15.7627 35.1643 15.686 35.355 15.5544 35.4854C15.4213 35.6158 15.2189 35.6961 14.9296 35.7019C14.4003 35.709 13.8695 35.7133 13.3387 35.7133C12.808 35.7133 12.257 35.709 11.7146 35.7019C11.4311 35.6976 11.2287 35.6216 11.0971 35.4983C10.9655 35.375 10.8902 35.1959 10.8888 34.9421C10.8888 34.8991 10.8917 34.8547 10.896 34.8074C10.9958 33.8126 11.1245 32.8193 11.2634 31.8259C11.2706 31.77 11.2749 31.7155 11.2749 31.6625C11.2749 31.5278 11.246 31.4002 11.1809 31.2884C11.1173 31.1752 11.0233 31.0805 10.9062 30.9902C10.4795 30.662 10.0746 30.2965 9.71011 29.9023C9.12148 29.2644 8.85827 28.5162 8.85682 27.6303V27.6146C8.85971 26.6442 8.86116 25.6752 8.86116 24.7048C8.86116 22.7912 8.85682 20.879 8.85682 18.9654C8.85682 18.1426 8.85682 17.3198 8.85971 16.4971V16.4913C8.85971 16.305 8.82934 16.1445 8.74257 16.0111C8.65579 15.8778 8.52418 15.7847 8.35931 15.703C5.79945 14.4487 3.24538 13.1816 0.70143 11.8973C0.613209 11.8528 0.498956 11.7668 0.416519 11.6737C0.374578 11.6278 0.339868 11.5805 0.318175 11.5404C0.296481 11.5002 0.287803 11.4673 0.28925 11.4529C0.28925 11.4371 0.297927 11.4042 0.319621 11.364C0.352884 11.3038 0.416519 11.2307 0.490278 11.1662C0.56259 11.1017 0.646473 11.0458 0.715893 11.0114C7.81263 7.47235 14.918 3.95047 22.0177 0.414254C22.1941 0.326817 22.3416 0.286681 22.4848 0.286681C22.6208 0.286681 22.761 0.322516 22.9303 0.405654C29.9749 3.91463 37.0254 7.41071 44.0744 10.9097C44.2393 10.9914 44.3998 11.0602 44.5285 11.149C44.6587 11.2393 44.7108 11.3483 44.7108 11.4544C44.7108 11.559 44.6587 11.6694 44.53 11.7625C44.4143 11.8442 44.2696 11.9087 44.1192 11.9833C41.6057 13.2303 39.0935 14.4831 36.5727 15.7159C36.3948 15.8019 36.2589 15.9079 36.1735 16.0499C36.0882 16.1918 36.0607 16.3566 36.0607 16.5444V16.5515C36.0636 17.2955 36.0636 18.0394 36.0636 18.7848C36.0636 20.0878 36.0607 21.3922 36.0607 22.6966C36.0607 24.2805 36.0651 25.8644 36.081 27.4497C36.081 27.4669 36.081 27.4827 36.081 27.4999C36.081 28.0962 35.9667 28.6208 35.7484 29.0967C35.5285 29.5726 35.2031 29.9998 34.7736 30.3939C33.4792 31.5837 31.9216 32.3333 30.2584 32.8909C27.7058 33.7453 25.1358 34.1538 22.5499 34.1552C20.476 34.1552 18.3919 33.8929 16.2978 33.3855C16.1401 33.3468 15.9854 33.3138 15.7757 33.2651L15.5761 33.2192L15.5992 33.4199L15.7424 33.4041L15.7091 33.5431C15.9203 33.5919 16.0765 33.6248 16.2283 33.6621C18.3428 34.1738 20.4499 34.4405 22.5485 34.4405C25.1647 34.4405 27.768 34.0262 30.3495 33.1619C32.0344 32.5971 33.6339 31.8317 34.9688 30.6047C35.4215 30.189 35.7729 29.7317 36.0101 29.2171C36.2473 28.7025 36.3702 28.1335 36.3688 27.5013C36.3688 27.4841 36.3688 27.4655 36.3688 27.4483C36.3514 25.8658 36.3485 24.2819 36.3485 22.698C36.3485 21.395 36.3514 20.0906 36.3514 18.7862C36.3514 18.0423 36.3514 17.2969 36.3485 16.553V16.5472C36.3485 16.3853 36.3731 16.2792 36.4209 16.1989C36.4686 16.1187 36.5496 16.0484 36.6985 15.9753C39.2208 14.7426 41.7329 13.4898 44.2465 12.2427C44.3882 12.1725 44.5473 12.1037 44.6963 11.999C44.8886 11.8629 44.9986 11.6636 44.9971 11.4587C44.9971 11.2522 44.8872 11.0501 44.6905 10.9168C44.5285 10.8065 44.355 10.7348 44.2002 10.6574C37.1541 7.15556 30.1036 3.65805 23.059 0.150508C22.8623 0.0516026 22.6743 0 22.4848 0C22.2852 0 22.09 0.0573363 21.8875 0.159108C14.7893 3.69389 7.68247 7.21577 0.58573 10.7548C0.457014 10.8194 0.322513 10.9197 0.211152 11.0358C0.156195 11.0946 0.107022 11.1562 0.0679737 11.2236C0.0303712 11.2909 0.0028925 11.364 0 11.4457V11.4529C0 11.5346 0.0274787 11.6077 0.0636349 11.6751C0.118592 11.7769 0.198136 11.8686 0.286357 11.9503C0.376024 12.032 0.472923 12.1022 0.569822 12.151C3.11522 13.4368 5.66929 14.7039 8.2306 15.9595C8.37378 16.0298 8.45187 16.0929 8.49815 16.1645C8.54443 16.2362 8.56902 16.3308 8.57046 16.4899V16.4942C8.56757 17.317 8.56757 18.1412 8.56757 18.964C8.56757 20.8776 8.57191 22.7897 8.57191 24.7033C8.57191 25.6723 8.57191 26.6427 8.56757 27.6117V27.6289C8.56757 28.5721 8.85827 29.4049 9.49751 30.0944C9.87353 30.5015 10.2901 30.877 10.7297 31.2153C10.8281 31.2913 10.8917 31.3601 10.9293 31.4274C10.9669 31.4948 10.9857 31.565 10.9857 31.6611C10.9857 31.6983 10.9828 31.7399 10.977 31.7858C10.8396 32.7806 10.7095 33.7768 10.6097 34.7787C10.6039 34.8346 10.601 34.8891 10.601 34.9421C10.601 35.2532 10.7008 35.5227 10.9004 35.7076C11.0985 35.8925 11.3805 35.9842 11.7117 35.99C12.2541 35.9971 12.7964 36.0014 13.3402 36.0014C13.884 36.0014 14.4032 35.9971 14.9354 35.99C15.2753 35.9857 15.5616 35.8853 15.7583 35.6918C15.9565 35.4983 16.0534 35.2231 16.0534 34.9063C16.0534 34.8375 16.049 34.7658 16.0403 34.6927C15.9897 34.2727 15.9449 33.8513 15.8914 33.3898L15.7482 33.4055L15.7453 33.4027ZM43.1806 11.4673L43.2515 11.3425C43.0996 11.2594 43.0114 11.2049 42.9131 11.1562C36.2488 7.84647 29.5844 4.5396 22.9245 1.2227C22.7755 1.14816 22.6294 1.10802 22.4848 1.10802C22.3228 1.10802 22.1695 1.15676 22.0104 1.2356C16.0953 4.17981 10.1758 7.114 4.25775 10.051C3.42038 10.4667 2.58589 10.8839 1.7167 11.3167L1.4824 11.4343L1.70802 11.5676C1.82083 11.635 1.89314 11.6851 1.9857 11.731C5.64326 13.5486 9.30227 15.3604 12.9526 17.188C13.0553 17.2396 13.1536 17.2654 13.2491 17.2654C13.3416 17.2654 13.4255 17.2396 13.4964 17.2052C13.5687 17.1708 13.6323 17.1263 13.6945 17.0833C16.4395 15.1798 19.1859 13.2791 21.9323 11.3798C22.0061 11.3282 22.0669 11.2709 22.1218 11.2293C22.1478 11.2092 22.1724 11.1935 22.1912 11.1834C22.21 11.1748 22.2216 11.172 22.2259 11.172C22.2491 11.172 22.2737 11.172 22.2982 11.172C22.3937 11.172 22.4993 11.1791 22.5817 11.1963C22.6237 11.2049 22.6584 11.2164 22.683 11.2293C22.7075 11.2408 22.7206 11.2537 22.7249 11.258C22.7321 11.2651 22.748 11.3067 22.7466 11.3712C22.7466 11.4802 22.7104 11.6378 22.6743 11.7625L22.6916 11.7668L22.6757 11.7597V11.7625L22.6916 11.7668L22.6757 11.7597C22.6757 11.7597 22.641 11.7969 22.5933 11.8256C22.5456 11.8557 22.4848 11.8872 22.4255 11.9274C19.8512 13.7105 17.2754 15.4937 14.7011 17.2768C14.5666 17.37 14.4451 17.4689 14.286 17.5879L14.1081 17.7212L14.3034 17.8273C14.4784 17.9233 14.6042 17.9964 14.7402 18.0652C17.1612 19.2664 19.5851 20.4604 21.9989 21.6731C22.1623 21.7548 22.3185 21.8035 22.4805 21.8035C22.6381 21.8035 22.7914 21.7577 22.952 21.6774C27.8287 19.2449 32.7127 16.8253 37.5938 14.4029C39.4551 13.4798 41.315 12.5552 43.2472 11.5948L43.4916 11.473L43.2529 11.3411L43.1821 11.4658L43.117 11.3382C41.1848 12.2972 39.3249 13.2232 37.4636 14.1463C32.5825 16.5687 27.6985 18.9883 22.8203 21.4208C22.6844 21.4882 22.5788 21.5154 22.479 21.5154C22.3749 21.5154 22.2679 21.4868 22.1276 21.4165C19.7124 20.2024 17.2884 19.0098 14.8689 17.8086C14.7459 17.7484 14.6216 17.6739 14.4422 17.5764L14.3728 17.7026L14.4596 17.8172C14.623 17.694 14.7445 17.5965 14.866 17.5119C17.4403 15.7288 20.0161 13.9456 22.5904 12.1625C22.6338 12.1324 22.7018 12.0965 22.7712 12.0521C22.8059 12.0291 22.8406 12.0048 22.8724 11.9718C22.9042 11.9388 22.936 11.8973 22.9534 11.8399C22.991 11.7066 23.0344 11.5361 23.0358 11.3726C23.0358 11.2766 23.0214 11.1763 22.9548 11.086C22.9144 11.0329 22.8623 10.9985 22.8088 10.9727C22.7292 10.934 22.6425 10.9154 22.5542 10.9025C22.466 10.891 22.3778 10.8867 22.2968 10.8867C22.2693 10.8867 22.2418 10.8867 22.2158 10.8867C22.1565 10.8882 22.1059 10.9068 22.0625 10.9283C21.9974 10.9613 21.9439 11.0028 21.8947 11.043C21.847 11.0831 21.8022 11.1204 21.766 11.1447C19.0196 13.0454 16.2717 14.9447 13.5282 16.8497C13.466 16.8927 13.4139 16.9271 13.3691 16.9486C13.3228 16.9701 13.2881 16.9801 13.2476 16.9801C13.2071 16.9801 13.1551 16.9701 13.0813 16.9328C9.42954 15.1052 5.77053 13.292 2.11297 11.4759C2.04789 11.4443 1.97557 11.3941 1.85554 11.3225L1.78178 11.4457L1.84686 11.5733C2.71605 11.1404 3.55054 10.7219 4.38792 10.3076C10.306 7.37058 16.2269 4.43639 22.1421 1.49074C22.278 1.42337 22.3836 1.39327 22.4863 1.39327C22.5774 1.39327 22.6743 1.41764 22.7958 1.47784C29.4557 4.79474 36.1215 8.10161 42.7843 11.4113C42.8682 11.4529 42.9565 11.506 43.1112 11.592L43.1821 11.4673H43.1806ZM13.8536 18.6128H13.709C13.709 19.2879 13.709 19.9516 13.709 20.6095C13.709 22.063 13.709 23.4849 13.7177 24.9069C13.7177 24.9556 13.7307 24.9972 13.7466 25.0344C13.7712 25.0903 13.8044 25.1376 13.8435 25.1806C13.8825 25.2236 13.9245 25.2609 13.9736 25.2896C14.2296 25.4401 14.3988 25.6221 14.5189 25.8414C14.6389 26.0608 14.7069 26.3188 14.7416 26.6112C14.9499 28.3857 15.1899 30.1546 15.3968 31.9248C15.4156 32.0882 15.4589 32.2301 15.5558 32.3419C15.6036 32.3979 15.6643 32.4423 15.7308 32.4753C15.7988 32.5082 15.8726 32.5297 15.9565 32.5455C17.2942 32.7877 18.6306 33.1217 19.9987 33.2765C20.8983 33.3769 21.795 33.4285 22.6844 33.4285C25.305 33.4285 27.8822 32.987 30.3943 32.0811C31.8102 31.5708 33.1567 30.8985 34.2862 29.855C34.6203 29.5454 34.8864 29.2085 35.0657 28.8244C35.2465 28.4416 35.3405 28.0145 35.3405 27.5343C35.3405 27.52 35.3405 27.5042 35.3405 27.4899C35.3217 25.9361 35.3174 24.3808 35.3174 22.8256C35.3174 20.9421 35.3246 19.0586 35.3246 17.1751V16.3853L35.1207 16.4756C34.9124 16.5687 34.7635 16.6275 34.6145 16.702C30.7313 18.6271 26.8453 20.5479 22.9693 22.4901C22.7856 22.5819 22.6338 22.6206 22.4848 22.6206C22.3272 22.6206 22.1681 22.5761 21.9757 22.4801C19.4954 21.2302 17.005 20.0018 14.5174 18.7676C14.3453 18.6816 14.1732 18.6042 13.9158 18.4838L13.709 18.3863V18.6128H13.8536L13.7914 18.7418C14.0503 18.8636 14.2224 18.941 14.3873 19.0227C16.8748 20.2569 19.3653 21.4853 21.8441 22.7338C22.0611 22.8428 22.2693 22.9058 22.4834 22.9058C22.6858 22.9058 22.8869 22.8499 23.098 22.7439C26.9725 20.803 30.8586 18.8823 34.7418 16.9572C34.8763 16.8898 35.0238 16.8311 35.2378 16.7365L35.1785 16.606H35.0339V17.1736C35.0339 19.0571 35.0267 20.9406 35.0267 22.8241C35.0267 24.3794 35.031 25.9361 35.0498 27.4913C35.0498 27.5056 35.0498 27.5185 35.0498 27.5329C35.0498 27.9772 34.9645 28.3585 34.8025 28.7025C34.6405 29.0465 34.4019 29.3533 34.0881 29.6443C32.999 30.652 31.6902 31.307 30.2946 31.8102C27.8128 32.7046 25.2717 33.1404 22.6844 33.1404C21.8051 33.1404 20.92 33.0902 20.0305 32.9898C18.6884 32.8393 17.3593 32.5068 16.0085 32.2617C15.9449 32.2502 15.8972 32.2344 15.8596 32.2158C15.8046 32.1871 15.7728 32.1585 15.7453 32.1097C15.7178 32.061 15.6961 31.9908 15.6846 31.889C15.4763 30.1144 15.2377 28.3456 15.0294 26.5754C14.9918 26.26 14.918 25.9647 14.7749 25.7024C14.6317 25.4401 14.4191 25.2136 14.1212 25.0402C14.0995 25.0287 14.0633 24.9957 14.0387 24.9628C14.0272 24.947 14.017 24.9298 14.0112 24.9183L14.0069 24.9054V24.9026H13.9968H14.0055C13.9982 23.4821 13.9968 22.0601 13.9968 20.6066C13.9968 19.9487 13.9968 19.2836 13.9968 18.6099H13.8522L13.8536 18.6128ZM11.2909 30.2004L11.434 30.2248C11.4702 30.0069 11.5035 29.8521 11.5237 29.6873C11.6539 28.6337 11.7811 27.5802 11.9099 26.5281C11.9417 26.2715 12.0039 26.035 12.1123 25.8357C12.2208 25.6379 12.3727 25.4759 12.5983 25.3584C12.7501 25.281 12.8543 25.1749 12.9078 25.0516C12.9613 24.9284 12.9656 24.8037 12.9671 24.679V24.6632C12.9642 23.8318 12.9627 23.0004 12.9627 22.1691C12.9627 21.7032 12.9627 21.2359 12.9627 20.7701C12.9627 20.3716 12.9627 19.9731 12.9627 19.5746V19.5717C12.9627 19.3037 13.0162 18.9826 13.0177 18.6787C13.0177 18.4637 12.9916 18.2516 12.8759 18.0695C12.7313 17.8459 12.4956 17.7126 12.2526 17.5994C12.0082 17.4876 11.7464 17.3958 11.5353 17.2883C10.9843 17.0088 10.4303 16.7393 9.79688 16.424L9.58718 16.3208V16.553C9.58718 16.7221 9.58718 16.854 9.58718 16.9701C9.58718 17.0375 9.58718 17.1005 9.58718 17.1636C9.59296 19.6305 9.61321 22.0974 9.61321 24.5629C9.61321 25.5763 9.61032 26.5911 9.60164 27.6045V27.6318C9.60164 28.2481 9.78531 28.747 10.0789 29.1713C10.3725 29.597 10.7702 29.9525 11.2026 30.3094L11.3964 30.4685L11.4384 30.2219L11.2952 30.1976L11.3878 30.0872C10.9597 29.7346 10.5836 29.3949 10.3175 29.0078C10.0514 28.6208 9.89233 28.1908 9.89089 27.6289V27.6045C9.89957 26.5897 9.90246 25.5748 9.90246 24.56C9.90246 22.0931 9.88366 19.6262 9.87643 17.1593C9.87643 17.0962 9.87643 17.0332 9.87643 16.9658C9.87643 16.8497 9.87643 16.7178 9.87643 16.5487H9.7318L9.66672 16.6762C10.3031 16.9916 10.8555 17.2611 11.4037 17.5392C11.6394 17.6596 11.9041 17.7499 12.1311 17.8545C12.3596 17.9577 12.5433 18.0753 12.6315 18.2186C12.7009 18.3247 12.7284 18.4838 12.7284 18.6744C12.7284 18.9453 12.6749 19.2664 12.6735 19.5674V19.5703C12.6735 19.9688 12.6735 20.3673 12.6735 20.7658C12.6735 21.2316 12.6735 21.6989 12.6735 22.1648C12.6735 22.9961 12.6735 23.8275 12.6778 24.6603V24.6747C12.6778 24.7908 12.6691 24.8753 12.6431 24.9341C12.6171 24.9914 12.5766 25.0416 12.4652 25.1004C12.1875 25.2437 11.9908 25.453 11.8592 25.6952C11.7276 25.9375 11.6596 26.2084 11.6249 26.4893C11.4962 27.5429 11.369 28.5965 11.2388 29.6486C11.22 29.7962 11.1882 29.951 11.1506 30.1732L11.2937 30.1976L11.2909 30.2004ZM12.6243 28.0016L12.4811 27.9844C12.2005 30.2449 11.92 32.5039 11.638 34.7701L11.6177 34.9307H15.0222L15.0135 34.7787C15.0048 34.6454 15.0063 34.5408 14.9918 34.4276C14.7662 32.643 14.5362 30.8598 14.315 29.0766C14.2846 28.8344 14.2614 28.6395 14.2311 28.4761C14.2079 28.3542 14.1834 28.251 14.1458 28.1607C14.1183 28.0933 14.0821 28.0317 14.0358 27.9787C13.9664 27.8984 13.871 27.8454 13.7668 27.8167C13.6613 27.788 13.5456 27.7794 13.4082 27.7794C13.2346 27.7794 13.0249 27.7937 12.7617 27.8124C12.7226 27.8153 12.6966 27.8253 12.672 27.8339C12.6474 27.8425 12.6214 27.8525 12.5766 27.8669L12.4898 27.8955L12.4782 27.9858L12.6214 28.003L12.6677 28.1392C12.7169 28.1234 12.7501 28.1105 12.7704 28.1034L12.7877 28.0976L12.7776 28.0561L12.7805 28.0991H12.7877L12.7776 28.0561L12.7805 28.0991C13.0437 28.0804 13.2491 28.0661 13.4067 28.0661C13.5542 28.0661 13.6569 28.079 13.7191 28.1034C13.7668 28.122 13.7943 28.1421 13.8218 28.1765C13.8623 28.2266 13.9013 28.3212 13.9332 28.4761C13.965 28.6309 13.991 28.8401 14.0243 29.1125C14.2455 30.8971 14.4755 32.6802 14.7011 34.4648C14.7127 34.5537 14.7127 34.6555 14.7214 34.7974L14.866 34.7888V34.6454H11.7782V34.7888L11.9214 34.806C12.2034 32.5398 12.484 30.2807 12.7646 28.0202L12.6214 28.003L12.6243 28.0016ZM12.7935 26.8936V27.0369H14.0214L14.0185 26.8907C14.0112 26.5782 13.9722 26.346 13.8666 26.1697C13.8131 26.0823 13.7408 26.0106 13.6526 25.9633C13.5644 25.916 13.466 25.8945 13.3619 25.8902C13.3489 25.8902 13.3359 25.8902 13.3228 25.8902C13.2202 25.8902 13.1204 25.9088 13.0321 25.9547C12.9656 25.9891 12.9078 26.0378 12.86 26.0966C12.7892 26.1855 12.7414 26.2958 12.7082 26.4263C12.6749 26.5567 12.6561 26.7087 12.6474 26.8878L12.6402 27.0383H12.7921V26.895L12.9367 26.9022C12.9497 26.6069 12.9974 26.4105 13.0611 26.3102C13.0929 26.26 13.1247 26.2313 13.1637 26.2098C13.2028 26.1898 13.252 26.1783 13.3214 26.1783H13.3489C13.4226 26.1826 13.4747 26.1969 13.5152 26.2184C13.5745 26.2514 13.6208 26.3016 13.6613 26.4105C13.7003 26.518 13.7249 26.6814 13.7292 26.8979L13.8739 26.895V26.7517H12.7935V26.895V26.8936Z" fill="white"/>
</g>
<defs>
<clipPath id="clip0_522_591">
<rect width="45" height="36" fill="white"/>
</clipPath>
</defs>
</svg>
