<svg width="30" height="37" viewBox="0 0 30 37" fill="none" xmlns="http://www.w3.org/2000/svg">
<g clip-path="url(#clip0_522_588)">
<path d="M29.772 13.2405C29.772 15.0224 29.8009 16.8057 29.7677 18.5861C29.602 27.1783 23.8366 34.5037 15.4918 36.7289C15.1878 36.8106 14.8218 36.8006 14.5148 36.7202C6.95394 34.7461 1.32254 28.3246 0.388782 20.619C0.286472 19.7682 0.230273 18.9074 0.22595 18.0495C0.208658 14.3897 0.218745 10.7299 0.218745 7.07146C0.218745 6.30392 0.292235 6.19632 1.07037 6.10593C4.17283 5.74727 7.14991 4.96394 9.95697 3.57805C11.5983 2.76747 13.1113 1.77325 14.4572 0.529391C14.8866 0.131989 15.097 0.111904 15.4889 0.47057C18.6865 3.39155 22.5296 4.94959 26.7258 5.76305C27.4924 5.91225 28.2705 6.00264 29.0443 6.11885C29.6928 6.2164 29.7792 6.31252 29.7807 6.98682C29.7821 9.07139 29.7807 11.156 29.7807 13.2405H29.772ZM1.35713 7.22497C1.35713 7.43443 1.35713 7.62094 1.35713 7.80888C1.35713 11.1818 1.34416 14.5561 1.36577 17.929C1.37154 18.8486 1.42918 19.774 1.54302 20.6879C2.41337 27.7005 7.73063 33.762 14.5941 35.5754C14.8549 35.6442 15.1791 35.6643 15.4241 35.5725C16.6619 35.112 17.9559 34.7361 19.0986 34.0991C24.9519 30.8352 28.2172 25.8383 28.5832 19.1643C28.7965 15.2935 28.6409 11.4013 28.6481 7.51908C28.6481 7.42726 28.6279 7.33544 28.6135 7.21493C23.5657 6.55785 18.9214 4.95246 15.0076 1.58387C11.0838 4.96394 6.43518 6.55785 1.35713 7.22497Z" fill="white"/>
<path d="M29.7723 13.2405H29.5562C29.5562 14.3667 29.5677 15.4915 29.5677 16.6134C29.5677 17.2705 29.5634 17.9261 29.5504 18.5818C29.3861 27.0793 23.687 34.32 15.4345 36.5208C15.312 36.5538 15.1722 36.5696 15.0295 36.5696C14.871 36.5696 14.7111 36.5495 14.5684 36.5122C7.09544 34.5596 1.52601 28.2112 0.603775 20.5932C0.501465 19.751 0.446707 18.8974 0.442384 18.0495C0.433738 16.338 0.432297 14.6264 0.432297 12.9134C0.432297 10.9666 0.435179 9.0183 0.435179 7.07146C0.435179 6.88352 0.440943 6.74005 0.456794 6.6425C0.468322 6.56933 0.485614 6.52485 0.501465 6.4976C0.514434 6.47751 0.524521 6.4646 0.544695 6.45025C0.573515 6.42873 0.628272 6.40291 0.719055 6.37995C0.809837 6.357 0.935203 6.33835 1.09515 6.3197C4.21778 5.95816 7.22081 5.1691 10.0524 3.77173C11.7095 2.95397 13.2413 1.94684 14.603 0.687204C14.7096 0.588212 14.7975 0.519349 14.8653 0.480613C14.9344 0.440442 14.9762 0.431834 15.0094 0.431834C15.0396 0.431834 15.0742 0.439007 15.129 0.469135C15.1837 0.499263 15.2543 0.550911 15.3394 0.629818C18.5729 3.58379 22.4593 5.15762 26.6814 5.97538C27.4595 6.12602 28.2405 6.21784 29.0086 6.33404C29.1657 6.357 29.2838 6.38139 29.3602 6.40721C29.4178 6.4273 29.451 6.44595 29.4697 6.46173C29.4841 6.47464 29.4928 6.48468 29.5043 6.50333C29.5201 6.53059 29.536 6.58081 29.5461 6.66115C29.5562 6.74149 29.5605 6.85052 29.5605 6.98969C29.5605 7.90787 29.5605 8.82749 29.5605 9.74568C29.5605 10.9106 29.5605 12.077 29.5605 13.242H29.7766V13.0268H29.5518V13.242H29.768V13.4572H29.9928V13.242C29.9928 12.077 29.9928 10.9106 29.9928 9.74568C29.9928 8.82749 29.9928 7.90787 29.9928 6.98969C29.9928 6.81609 29.987 6.67406 29.9654 6.54637C29.9481 6.45025 29.9207 6.35987 29.8717 6.27809C29.8357 6.2164 29.7853 6.16045 29.7291 6.11741C29.6426 6.05141 29.5461 6.01124 29.4395 5.98112C29.3328 5.95099 29.2132 5.92947 29.072 5.90795C28.2939 5.79174 27.5186 5.69992 26.7621 5.55359C22.5919 4.74587 18.7905 3.20074 15.6304 0.314192C15.5296 0.222373 15.4359 0.149205 15.335 0.0932532C15.2385 0.0344319 15.1275 0 15.0108 0C14.8811 0 14.7601 0.0430399 14.6491 0.1076C14.5367 0.173594 14.4301 0.261109 14.3105 0.371578C12.9833 1.59965 11.4876 2.58383 9.86214 3.38581C7.08103 4.75878 4.12844 5.53494 1.04616 5.89217C0.847303 5.91512 0.687353 5.93951 0.547577 5.98112C0.443825 6.01268 0.347279 6.05428 0.265142 6.12171C0.20318 6.17193 0.152745 6.23362 0.115279 6.30392C0.0590806 6.40865 0.0345838 6.52055 0.0201739 6.64537C0.00576397 6.77018 0.00288198 6.90791 0.00288198 7.0729C0.00288198 9.01974 0 10.968 0 12.9149C0 14.6278 0.00288198 16.3394 0.0100869 18.0524C0.0144099 18.9175 0.0706086 19.7869 0.17436 20.6463C1.11821 28.4408 6.81301 34.9327 14.4589 36.9311C14.6405 36.9785 14.835 37.0029 15.0295 37.0029C15.2053 37.0029 15.3797 36.9828 15.5454 36.9383C23.9824 34.6902 29.8156 27.2787 29.9827 18.5918C29.9957 17.9319 30 17.2734 30 16.6149C30 15.4886 29.9885 14.3639 29.9885 13.242H29.7723V13.2405ZM1.35741 7.22497H1.14127C1.14127 7.43443 1.14127 7.62094 1.14127 7.80888C1.14127 9.65386 1.13694 11.4988 1.13694 13.3438C1.13694 14.8717 1.13982 16.4011 1.14847 17.9304C1.15423 18.8587 1.21331 19.7926 1.32715 20.7137C2.21192 27.8167 7.58682 33.9442 14.5367 35.782C14.6909 35.8221 14.8638 35.848 15.0367 35.848C15.1924 35.848 15.3509 35.8279 15.4993 35.7734C16.727 35.3171 18.0311 34.9384 19.2041 34.2856C22.1567 32.6401 24.4652 30.5497 26.0805 28.0247C27.6959 25.4997 28.6138 22.5429 28.7997 19.1743C28.8876 17.5804 28.9121 15.985 28.9121 14.3883C28.9121 12.199 28.8645 10.0097 28.8645 7.8261C28.8645 7.7228 28.8645 7.62094 28.8645 7.51764C28.8645 7.39283 28.84 7.2967 28.8285 7.1891L28.8083 7.02268L28.6411 7.00116C23.6193 6.34696 19.024 4.75591 15.1477 1.42032L15.0065 1.29837L14.8653 1.42032C10.9818 4.76596 6.37927 6.34552 1.32859 7.01121L1.14127 7.0356V7.22354H1.35741L1.38623 7.4373C6.49022 6.76588 11.1879 5.15905 15.1491 1.74455L15.0079 1.58244L14.8667 1.74455C18.8208 5.14758 23.5112 6.76588 28.5864 7.42582L28.6138 7.21206L28.3991 7.23788C28.4149 7.36987 28.4336 7.45739 28.4322 7.51621C28.4322 7.61807 28.4322 7.72136 28.4322 7.82466C28.4322 10.014 28.4798 12.2033 28.4798 14.3868C28.4798 15.9779 28.4538 17.566 28.3674 19.1485C28.1858 22.4539 27.2881 25.3319 25.7159 27.7909C24.1438 30.2485 21.893 32.29 18.9923 33.9069C17.8784 34.5295 16.5959 34.904 15.348 35.3674C15.2644 35.3989 15.1549 35.4147 15.0367 35.4147C14.9071 35.4147 14.7673 35.3946 14.6477 35.363C7.87358 33.5755 2.61396 27.58 1.75657 20.6577C1.64417 19.7539 1.58653 18.8357 1.58077 17.9247C1.57212 16.3968 1.56924 14.8689 1.56924 13.3409C1.56924 11.496 1.57356 9.65242 1.57356 7.80744C1.57356 7.6195 1.57356 7.43156 1.57356 7.2221H1.35741V7.22497Z" fill="white"/>
</g>
<defs>
<clipPath id="clip0_522_588">
<rect width="30" height="37" fill="white"/>
</clipPath>
</defs>
</svg>
