<svg width="31" height="45" viewBox="0 0 31 45" fill="none" xmlns="http://www.w3.org/2000/svg">
<g clip-path="url(#clip0_522_496)">
<path d="M17.5597 9.74442C17.5125 9.66048 17.3962 9.54941 17.4156 9.47226C17.4754 9.23316 17.5235 8.91945 17.6921 8.79651C17.9543 8.6049 18.1802 8.85756 18.2654 9.10174C18.3792 9.42647 18.4222 9.77664 18.4955 10.1158C18.536 10.1158 18.5765 10.1141 18.6161 10.1132C18.5883 9.77409 18.6153 9.41884 18.5208 9.10005C18.337 8.47518 18.5065 7.99783 19.0031 7.57306C19.3251 8.19962 19.5477 8.79991 19.0697 9.457C18.9204 9.66133 18.8597 9.93095 18.7594 10.1709C18.799 10.1912 18.8387 10.2107 18.8783 10.2311C18.9272 10.1777 18.9913 10.1319 19.0208 10.0691C19.0688 9.96825 19.0663 9.83175 19.1346 9.75459C19.3091 9.55619 19.4963 9.35949 19.7129 9.2162C19.7602 9.18568 20.0561 9.37645 20.0637 9.47819C20.0831 9.74357 20.0063 10.0157 19.9633 10.3159C19.729 10.1183 19.6025 9.97419 19.4432 9.89873C19.3934 9.87499 19.2214 10.0166 19.1734 10.1158C19.1405 10.1819 19.2273 10.3074 19.2358 10.3337C19.1843 10.5804 19.1422 10.7847 19.0992 10.9891L19.2181 11.051C19.3201 11.0026 19.4229 10.9535 19.5679 10.8848C19.5418 11.0374 19.519 11.1671 19.487 11.3486C20.3149 11.742 20.7803 11.09 21.3612 10.6677C21.4531 10.7237 21.566 10.7932 21.7026 10.8763C21.4893 11.8403 21.2777 12.7984 21.0652 13.7616C17.3397 12.4626 14.3181 12.2269 9.95684 13.7548C9.74691 12.8086 9.53783 11.8666 9.32031 10.889C9.42738 10.817 9.5353 10.744 9.64153 10.6728C10.2275 11.0433 10.6836 11.7462 11.5444 11.3452C11.5081 11.1883 11.4778 11.0586 11.4356 10.8805C11.5789 10.9535 11.6792 11.0043 11.7981 11.0645C11.9254 10.8161 12.0831 10.5974 11.5764 10.3947C11.7113 10.3023 11.7956 10.2447 11.9364 10.1488C11.8015 10.0632 11.6649 9.91314 11.5174 9.90042C11.3665 9.88771 11.2054 10.0115 11.0486 10.0751C11.0714 10.1455 11.0941 10.2158 11.1169 10.2862C11.0461 10.0793 10.9238 9.87244 10.9222 9.66557C10.9213 9.51889 11.0579 9.27895 11.1776 9.24588C11.3252 9.20603 11.5629 9.29251 11.6801 9.40782C11.8217 9.54687 11.8757 9.77494 11.9701 9.96317C12.0173 10.0581 12.0704 10.1497 12.2079 10.2201C11.9566 9.34762 11.2366 8.5252 12.0527 7.60358C12.4574 7.9512 12.6791 8.37767 12.5265 8.97965C12.4338 9.34423 12.4254 9.73 12.3798 10.1065L12.5392 10.1302C12.5603 10.0378 12.5872 9.94536 12.6024 9.8521C12.6336 9.65794 12.6108 9.43665 12.6985 9.27555C12.809 9.07207 12.9902 8.89063 13.1816 8.7609C13.2314 8.72699 13.4708 8.89487 13.5585 9.01611C13.7279 9.25266 13.6799 9.43071 13.4632 9.69779C13.2836 9.62826 13.115 9.51635 12.9489 9.52058C12.8747 9.52228 12.7744 9.75459 12.7508 9.89364C12.739 9.96317 12.8722 10.0573 12.9042 10.0963C12.9186 10.304 12.9312 10.4939 12.9531 10.8017C13.1648 10.6211 13.2541 10.5456 13.3747 10.4431C13.3966 10.6024 13.4151 10.7322 13.4337 10.8636C14.2321 11.045 14.7295 10.6423 15.1291 10.0361C15.4512 9.54687 15.5701 9.54348 15.8837 10.0217C16.2816 10.627 16.7723 11.0408 17.5749 10.8687C17.6002 10.7313 17.6272 10.5906 17.6609 10.4091C17.7739 10.5278 17.8506 10.6101 17.9374 10.7016C18.1996 10.5346 18.2907 10.3659 18.0673 10.1929C18.149 10.0429 18.2662 9.92416 18.2569 9.81649C18.2477 9.70118 18.1018 9.496 18.0453 9.50532C17.8835 9.5333 17.7376 9.64946 17.5597 9.74527V9.74442Z" fill="white"/>
<path d="M28.7314 28.1709C28.7255 35.4845 22.7809 41.4746 15.5212 41.4831C8.18132 41.4916 2.20557 35.5354 2.1963 28.1997C2.18703 20.792 8.14928 14.7815 15.4916 14.7985C22.807 14.8155 28.7373 20.8047 28.7314 28.1709ZM15.4739 15.2046C8.43255 15.1927 2.62458 20.9904 2.60857 28.0488C2.59255 35.2166 8.32295 41.0659 15.3728 41.0778C22.5432 41.0897 28.3064 35.3378 28.3225 28.1522C28.3393 21.0328 22.5676 15.2165 15.4739 15.2046Z" fill="white"/>
<path d="M15.5965 13.1799C17.3813 13.196 19.1939 13.514 20.9391 14.2008C21.4011 14.383 21.5647 14.662 21.4298 15.024C21.2991 15.3742 20.977 15.4742 20.5125 15.2996C17.1815 14.0439 13.8505 14.0354 10.5195 15.3013C10.0617 15.4751 9.7211 15.3742 9.59632 15.0333C9.46227 14.6654 9.62414 14.3797 10.0819 14.2008C11.8271 13.5191 13.6397 13.1943 15.5957 13.1808L15.5965 13.1799Z" fill="white"/>
<path d="M14.8456 5.2423C13.8946 5.28384 13.0667 5.03542 12.2346 4.77683C11.7574 4.62845 11.2574 4.48008 10.7659 4.4716C9.48783 4.44955 8.60428 5.58229 8.88755 6.82949C8.98957 7.2797 9.15818 7.7138 9.30741 8.19369C9.21551 8.23523 9.09495 8.29034 8.89852 8.37852C8.73159 7.76128 8.51829 7.18898 8.42976 6.59717C8.24597 5.36439 9.15987 4.23081 10.4633 4.12652C11.0323 4.08073 11.6259 4.21639 12.1941 4.33509C13.0532 4.51399 13.8997 4.74885 14.8237 4.97862C14.8237 4.97522 14.8329 5.09308 14.8456 5.2423Z" fill="white"/>
<path d="M16.1942 5.24315C16.1875 5.12529 16.1815 5.01931 16.1748 4.90909C16.2262 4.88705 16.2608 4.86415 16.2996 4.85568C17.1722 4.6666 18.0549 4.51484 18.9148 4.28083C19.9223 4.00697 20.8716 3.9561 21.7594 4.62167C22.3714 5.08036 22.7112 5.6781 22.5965 6.44202C22.4996 7.08808 22.3031 7.71889 22.1413 8.39717C21.9356 8.29882 21.8276 8.24626 21.7332 8.20132C21.8824 7.67395 22.0114 7.17287 22.1666 6.67942C22.46 5.74423 21.6068 4.53519 20.4433 4.48771C19.9012 4.46566 19.3372 4.61997 18.8069 4.77683C17.9588 5.02779 17.1207 5.28893 16.1942 5.24315Z" fill="white"/>
<path d="M16.4585 3.40245C16.456 3.94932 16.0378 4.36901 15.5024 4.35968C14.9654 4.35035 14.5506 3.91964 14.5607 3.3821C14.57 2.85473 14.9688 2.46302 15.5016 2.45709C16.0572 2.45031 16.4602 2.84965 16.4585 3.40245Z" fill="white"/>
<path d="M1.80292 29.196C0.575401 28.8627 -0.160606 27.8199 0.0720832 26.7745C1.11076 26.8576 1.83749 27.8623 1.80292 29.196Z" fill="white"/>
<path d="M22.8659 41.8816C21.7842 42.4259 20.6748 42.1732 19.959 41.2381C20.8484 40.5928 22.2682 40.8947 22.8659 41.8816Z" fill="white"/>
<path d="M30.0945 33.4666C29.7716 34.5502 28.8071 35.1047 27.5332 34.958C27.658 33.9329 29.0035 33.1342 30.0945 33.4666Z" fill="white"/>
<path d="M8.63979 14.1914C9.06807 15.2784 8.42902 16.5578 7.44262 16.9351C7.12309 15.6837 7.59269 14.5916 8.63979 14.1914Z" fill="white"/>
<path d="M0.935547 33.4768C1.92111 33.0961 3.22366 33.8329 3.50525 34.9309C2.34265 35.1801 1.25086 34.5629 0.935547 33.4768Z" fill="white"/>
<path d="M30.582 24.5107C30.9774 25.4942 30.3973 26.6736 29.2752 27.167C28.8444 26.2115 29.502 24.877 30.582 24.5107Z" fill="white"/>
<path d="M2.06753 25.2C0.975744 24.4539 0.592143 23.2593 1.12918 22.3529C2.1257 22.8642 2.52869 24.0681 2.06753 25.2Z" fill="white"/>
<path d="M12.3965 43.4077C12.7211 42.2962 13.8719 41.6493 14.9687 41.9358C14.7251 42.9889 13.5751 43.6578 12.3965 43.4077Z" fill="white"/>
<path d="M1.85547 35.5252C2.88065 35.0775 4.10059 35.5439 4.61655 36.5825C3.62172 37.0717 2.27279 36.5553 1.85547 35.5252Z" fill="white"/>
<path d="M29.1625 35.5447C28.7073 36.5715 27.5421 37.0191 26.4082 36.6028C26.8677 35.5583 28.2082 35.0436 29.1625 35.5447Z" fill="white"/>
<path d="M3.38877 18.4256C4.21414 19.2557 4.24786 20.5537 3.48488 21.4194C2.67046 20.6004 2.61735 19.2718 3.38877 18.4256Z" fill="white"/>
<path d="M26.4929 39.1693C25.6591 40.0248 24.3448 40.1045 23.5186 39.3685C24.3288 38.5275 25.6305 38.4317 26.4929 39.1693Z" fill="white"/>
<path d="M2.65582 33.0978C1.5008 33.2139 0.472242 32.4229 0.31543 31.2969C1.35663 31.0706 2.48046 31.9354 2.65582 33.0978Z" fill="white"/>
<path d="M18.6237 43.3933C17.5074 43.6858 16.3786 43.0423 16.0371 41.9435C17.1205 41.6315 18.2966 42.2792 18.6237 43.3933Z" fill="white"/>
<path d="M1.78217 27.1569C0.823589 26.8872 0.0024302 25.5722 0.425656 24.5082C1.48625 24.8346 2.09074 26.0148 1.78217 27.1569Z" fill="white"/>
<path d="M18.0078 41.7095C19.1738 41.3144 20.2411 41.7179 20.7967 42.7447C19.9376 43.3017 18.6123 42.8193 18.0078 41.7095Z" fill="white"/>
<path d="M5.97618 38.09C4.92655 38.6818 3.6771 38.4028 3.0625 37.4566C3.93509 36.8309 5.17441 37.0912 5.97618 38.09Z" fill="white"/>
<path d="M26.4199 19.7407C25.5566 18.8962 25.4267 17.7745 26.0768 16.7664C26.9805 17.2963 27.1264 18.8911 26.4199 19.7407Z" fill="white"/>
<path d="M4.9216 16.7638C5.61798 17.66 5.47044 18.9598 4.58521 19.7423C3.8981 18.7851 4.04901 17.4531 4.9216 16.7638Z" fill="white"/>
<path d="M5.92258 18.2527C5.38722 17.1793 5.67134 16.0219 6.63751 15.3377C7.20912 15.9872 7.0405 17.5125 5.92258 18.2527Z" fill="white"/>
<path d="M24.7787 40.6335C24.0384 41.3576 22.6111 41.3 21.8018 40.4343C22.6609 39.7051 23.9938 39.7874 24.7787 40.6335Z" fill="white"/>
<path d="M15.5225 42.0003C16.3091 43.0338 16.2948 44.2878 15.5056 44.9991C14.7132 44.2251 14.7098 42.9397 15.5225 42.0003Z" fill="white"/>
<path d="M10.2168 42.7659C10.7412 41.7307 11.7866 41.3262 12.9922 41.6917C12.6027 42.732 11.2192 43.2678 10.2168 42.7659Z" fill="white"/>
<path d="M24.3305 15.3326C25.3245 15.9075 25.6566 17.2217 25.0918 18.2501C24.1121 17.5523 23.8153 16.4442 24.3305 15.3326Z" fill="white"/>
<path d="M28.3418 33.108C28.6554 31.8455 29.5862 31.1325 30.7075 31.2749C30.5751 32.3881 29.5803 33.1699 28.3418 33.108Z" fill="white"/>
<path d="M28.9385 31.1469C29.0363 29.9166 29.849 29.0739 30.988 29.023C31.1052 30.277 29.8052 31.2164 28.9385 31.1469Z" fill="white"/>
<path d="M0 29.023C1.16766 29.0654 2.04109 29.97 2.0765 31.1443C1.02097 31.1927 0.0935817 30.2592 0 29.023Z" fill="white"/>
<path d="M28.935 25.1881C28.5312 23.9604 28.8988 22.8752 29.8759 22.3563C30.4821 23.2101 29.9164 24.715 28.935 25.1881Z" fill="white"/>
<path d="M30.9625 26.7643C31.18 27.8148 30.4457 28.8593 29.2612 29.1858C29.0394 28.1895 29.8538 26.8296 30.9625 26.7643Z" fill="white"/>
<path d="M11.1032 41.2033C10.2837 42.2012 9.17172 42.4488 8.17773 41.8756C8.65913 40.9362 9.88834 40.6471 11.1032 41.2033Z" fill="white"/>
<path d="M27.9808 37.4515C27.2448 38.4223 26.1303 38.6665 25.0596 38.1086C25.6489 37.1539 26.9691 36.8453 27.9808 37.4515Z" fill="white"/>
<path d="M23.567 16.9393C22.5182 16.4984 22.0165 15.3496 22.3807 14.2211C23.3731 14.4551 23.9539 15.7862 23.567 16.9393Z" fill="white"/>
<path d="M4.53418 39.1676C5.39665 38.4283 6.75738 38.5351 7.49676 39.3779C6.66633 40.1045 5.32162 40.0171 4.53418 39.1676Z" fill="white"/>
<path d="M27.6515 18.4214C28.4001 19.3464 28.3352 20.6682 27.5241 21.4169C26.7789 20.4876 26.8236 19.1921 27.6515 18.4214Z" fill="white"/>
<path d="M9.23485 40.4411C8.2847 41.3008 7.04116 41.378 6.24023 40.6259C7.05971 39.784 8.37828 39.7026 9.23485 40.4411Z" fill="white"/>
<path d="M28.9259 20.3121C29.554 21.2515 29.307 22.5547 28.3687 23.2508C27.7684 22.1528 28.0078 20.8895 28.9259 20.3121Z" fill="white"/>
<path d="M2.11989 20.3172C3.0262 20.9692 3.23865 22.1028 2.66957 23.2465C1.72701 22.6547 1.44795 21.1642 2.11989 20.3172Z" fill="white"/>
<path d="M14.0859 8.22167C14.5893 8.43957 15.0352 8.71342 14.8304 9.30099C14.7427 9.5528 14.3937 9.7122 14.0859 9.98012V8.22167Z" fill="white"/>
<path d="M16.3069 7.54932C15.6443 8.73886 15.4352 8.74225 14.7051 7.54932H16.3069Z" fill="white"/>
<path d="M16.835 9.91992C16.6166 9.70033 16.2373 9.49939 16.2111 9.2586C16.1403 8.60405 16.2212 8.56675 16.9336 8.25219V9.84023C16.9008 9.86651 16.8679 9.89364 16.835 9.91992Z" fill="white"/>
<path d="M10.6876 10.6482C9.55623 10.1989 9.4753 9.88008 10.3184 9.1382C10.4432 9.64946 10.5629 10.1378 10.6876 10.6482Z" fill="white"/>
<path d="M20.3408 10.6525C20.4681 10.1234 20.587 9.63165 20.7126 9.10683C21.5076 9.96486 21.4571 10.1734 20.3408 10.6525Z" fill="white"/>
<path d="M9.77127 8.33528C9.64397 8.69138 9.55038 8.98304 9.43151 9.26284C9.39779 9.34253 9.28734 9.43749 9.21147 9.43834C9.13053 9.43834 9.02093 9.35356 8.97288 9.27471C8.87929 9.12124 8.82028 8.94659 8.72754 8.73632C9.06308 8.60744 9.38261 8.4845 9.77043 8.33528H9.77127Z" fill="white"/>
<path d="M9.04745 10.6516C8.94375 10.4863 8.77682 10.3303 8.75069 10.1531C8.70853 9.8716 8.91087 9.66472 9.1815 9.72916C9.34759 9.76901 9.55498 9.98182 9.59039 10.1505C9.64941 10.4278 9.43948 10.5787 9.04745 10.6525V10.6516Z" fill="white"/>
<path d="M16.0155 9.15431C15.8537 9.26368 15.7036 9.43495 15.5274 9.46717C15.25 9.51804 15.0738 9.33575 15.0772 9.04494C15.0806 8.75582 15.2635 8.57438 15.5341 8.6227C15.7087 8.65407 15.8562 8.83552 16.0164 8.94998C16.0164 9.01781 16.0164 9.08648 16.0164 9.15431H16.0155Z" fill="white"/>
<path d="M22.3594 10.254C22.1967 10.3642 22.0458 10.5372 21.8687 10.5702C21.5897 10.6211 21.4101 10.4185 21.4151 10.1446C21.4202 9.87414 21.6048 9.66981 21.8805 9.72407C22.0559 9.75883 22.2026 9.94366 22.3619 10.0615L22.3594 10.2548V10.254Z" fill="white"/>
<path d="M21.2246 8.32595C21.6023 8.46924 21.921 8.58964 22.2287 8.70664C22.2405 8.75412 22.2616 8.78888 22.2515 8.80414C22.1132 9.02204 21.9986 9.38917 21.8249 9.42054C21.4649 9.48497 21.5863 9.04154 21.4514 8.84399C21.3612 8.71258 21.319 8.54809 21.2246 8.3268V8.32595Z" fill="white"/>
<path d="M16.0038 1.26331C15.8394 1.37014 15.659 1.58041 15.5148 1.55751C15.3521 1.53208 15.2223 1.29722 15.0781 1.15309C15.224 1.01065 15.358 0.774942 15.5199 0.752897C15.6649 0.733397 15.842 0.948752 16.0055 1.06067C16.0055 1.1285 16.0047 1.19633 16.0038 1.26415V1.26331Z" fill="white"/>
<path d="M15.6172 6.41828C15.7242 6.58022 15.93 6.75403 15.9123 6.90071C15.8929 7.06265 15.688 7.28903 15.5278 7.32548C15.2648 7.38399 15.0574 7.16948 15.0953 6.90156C15.1198 6.72859 15.3069 6.57852 15.4216 6.41743C15.4873 6.41743 15.5531 6.41743 15.618 6.41743L15.6172 6.41828Z" fill="white"/>
<path d="M15.6246 4.46821C15.7291 4.63269 15.9331 4.81074 15.9129 4.95742C15.8901 5.11936 15.6794 5.34489 15.5183 5.37626C15.257 5.42798 15.0496 5.21093 15.0926 4.94216C15.1204 4.76919 15.3118 4.62252 15.429 4.46397C15.4939 4.46566 15.5588 4.46651 15.6246 4.46821Z" fill="white"/>
<path d="M23.4237 8.39633C23.2593 8.50061 23.0763 8.70664 22.9364 8.68121C22.777 8.65153 22.573 8.426 22.5486 8.26152C22.5326 8.15045 22.788 7.90033 22.9322 7.891C23.089 7.88168 23.2593 8.07923 23.4237 8.1869C23.4237 8.25643 23.4237 8.3268 23.4237 8.39633Z" fill="white"/>
<path d="M15.4363 6.42252C15.3165 6.27075 15.1269 6.13255 15.094 5.96298C15.0409 5.69082 15.228 5.5187 15.5113 5.5187C15.7684 5.5187 15.9649 5.65775 15.9236 5.92313C15.8966 6.09779 15.7372 6.25125 15.6378 6.41404L15.4363 6.42167V6.42252Z" fill="white"/>
<path d="M7.78096 5.51785C7.68064 5.34743 7.51624 5.18549 7.49516 5.00575C7.46397 4.73782 7.68317 4.56486 7.92681 4.63608C8.08278 4.68102 8.29018 4.89976 8.29102 5.04136C8.29187 5.2016 8.087 5.36354 7.97234 5.52464C7.90827 5.52209 7.84419 5.5204 7.78096 5.51785Z" fill="white"/>
<path d="M20.1826 3.76957C20.0789 3.60339 19.874 3.4211 19.8985 3.27612C19.9255 3.11672 20.1489 2.90645 20.3108 2.88186C20.4212 2.86491 20.6724 3.12435 20.6809 3.27018C20.6901 3.43128 20.4929 3.60339 20.3858 3.77127C20.3183 3.77127 20.2509 3.77042 20.1835 3.76957H20.1826Z" fill="white"/>
<path d="M17.1427 3.57626C17.2447 3.74668 17.4336 3.92388 17.4209 4.08497C17.41 4.22317 17.1849 4.41903 17.0247 4.45464C16.765 4.51229 16.5736 4.30203 16.6124 4.0536C16.6402 3.8781 16.8308 3.72887 16.9488 3.56863C17.0129 3.57117 17.077 3.57372 17.1419 3.57626H17.1427Z" fill="white"/>
<path d="M21.8432 3.64833C21.678 3.74922 21.5195 3.9171 21.3458 3.93575C21.0912 3.96288 20.9495 3.76618 20.9563 3.5025C20.9639 3.22949 21.1375 3.06415 21.3829 3.11503C21.5549 3.15064 21.6965 3.33293 21.8516 3.44908C21.8491 3.51521 21.8457 3.58219 21.8432 3.64833Z" fill="white"/>
<path d="M9.18874 3.37701C9.36072 3.2846 9.54789 3.10061 9.70133 3.12605C9.84549 3.14979 10.0352 3.38041 10.0605 3.54235C10.0993 3.79755 9.88596 3.98662 9.63641 3.93321C9.46442 3.89675 9.32532 3.70429 9.17188 3.5822C9.17778 3.51437 9.18368 3.44569 9.18958 3.37786L9.18874 3.37701Z" fill="white"/>
<path d="M23.9164 6.22327C23.7511 6.33349 23.5834 6.53358 23.4215 6.5285C23.2765 6.52341 23.0581 6.31399 23.0177 6.15629C22.9536 5.90702 23.1382 5.6976 23.4021 5.7349C23.5817 5.76034 23.7419 5.92398 23.9113 6.02572C23.913 6.09185 23.9147 6.15798 23.9155 6.22412L23.9164 6.22327Z" fill="white"/>
<path d="M8.08717 6.2131C7.92783 6.32756 7.78114 6.509 7.60662 6.54122C7.35454 6.587 7.14967 6.39708 7.20278 6.13848C7.23566 5.97993 7.43126 5.76373 7.57458 5.74593C7.72971 5.72643 7.90928 5.90871 8.0779 6.00367L8.08717 6.2131Z" fill="white"/>
<path d="M8.50927 4.64202C8.39377 4.48347 8.20829 4.33594 8.17962 4.16298C8.13747 3.90862 8.33053 3.70513 8.58852 3.76194C8.74954 3.79755 8.97296 3.98917 8.98898 4.13076C9.00584 4.28676 8.81615 4.46481 8.71666 4.63354C8.64753 4.63608 8.57924 4.63947 8.51011 4.64202H8.50927Z" fill="white"/>
<path d="M8.57896 8.37089C8.41709 8.48365 8.24257 8.69901 8.09672 8.68121C7.93737 8.6617 7.71817 8.44211 7.68867 8.28017C7.66843 8.16825 7.9163 7.90372 8.06046 7.891C8.22065 7.87659 8.39938 8.0699 8.57053 8.17334C8.57306 8.23947 8.57643 8.3056 8.57896 8.37174V8.37089Z" fill="white"/>
<path d="M14.482 4.17824C14.3142 4.27574 14.154 4.43683 13.9778 4.45718C13.7131 4.48771 13.5377 4.26811 13.5993 4.02732C13.6389 3.87301 13.8589 3.66952 14.0048 3.66359C14.1616 3.65765 14.3268 3.8569 14.4887 3.96712C14.4862 4.03749 14.4845 4.10787 14.482 4.17824Z" fill="white"/>
<path d="M19.0392 3.88488C18.9254 3.72548 18.7231 3.56524 18.7256 3.40754C18.7273 3.26764 18.9338 3.05568 19.0898 3.00904C19.3394 2.93443 19.5527 3.11503 19.5316 3.37447C19.5173 3.54913 19.347 3.71107 19.2466 3.87894L19.0401 3.88573L19.0392 3.88488Z" fill="white"/>
<path d="M13.0498 4.29609C12.6805 4.2113 12.5271 4.08073 12.5355 3.80433C12.5431 3.52624 12.7277 3.36175 12.968 3.41856C13.1223 3.45502 13.3322 3.66529 13.3406 3.80857C13.3499 3.96458 13.156 4.1333 13.0498 4.29609Z" fill="white"/>
<path d="M22.8359 7.15591C23.0029 7.05417 23.1782 6.86255 23.335 6.87697C23.4784 6.88969 23.6841 7.10928 23.7144 7.26613C23.7616 7.51032 23.5837 7.69091 23.3114 7.68837C23.0442 7.68582 22.9034 7.5349 22.8359 7.15506V7.15591Z" fill="white"/>
<path d="M7.23926 7.14828C7.40703 7.04993 7.58323 6.86255 7.7392 6.87781C7.88168 6.89223 8.08149 7.11182 8.11269 7.26868C8.16159 7.51795 7.98117 7.69176 7.70885 7.68752C7.43822 7.68413 7.30417 7.52812 7.23926 7.14743V7.14828Z" fill="white"/>
<path d="M11.2211 3.37108C11.06 3.4813 10.8965 3.68139 10.7397 3.67631C10.5989 3.67122 10.3915 3.46265 10.346 3.30495C10.2726 3.04889 10.4631 2.84456 10.7177 2.8683C10.8914 2.88441 11.0508 3.05737 11.216 3.15996C11.2177 3.23033 11.2194 3.30071 11.2211 3.37023V3.37108Z" fill="white"/>
<path d="M22.3215 4.63523C22.2195 4.46905 22.029 4.29609 22.0416 4.13924C22.0526 3.99849 22.2684 3.7967 22.4252 3.76194C22.6706 3.70683 22.8518 3.87471 22.851 4.15365C22.8501 4.42581 22.6967 4.56147 22.3215 4.63523Z" fill="white"/>
<path d="M22.651 4.9235C22.8162 4.82091 22.9882 4.63015 23.145 4.64202C23.2866 4.65304 23.4873 4.86755 23.5252 5.02525C23.5868 5.28215 23.3895 5.47885 23.1357 5.44155C22.9621 5.41611 22.8103 5.23891 22.6484 5.12953C22.6484 5.06086 22.6501 4.99218 22.6501 4.9235H22.651Z" fill="white"/>
<path d="M16.6462 1.82798C16.4422 1.69317 16.2795 1.58634 16.1387 1.49392V0.812246C16.2913 0.715591 16.454 0.612152 16.6462 0.490061V1.82798Z" fill="white"/>
<path d="M12.0325 2.92765C12.1278 3.09468 12.3116 3.27188 12.2938 3.42619C12.2778 3.56778 12.0628 3.76194 11.906 3.79586C11.6523 3.85097 11.4592 3.65426 11.5047 3.39821C11.5351 3.22525 11.7138 3.07857 11.8259 2.92002C11.8951 2.92256 11.9642 2.92511 12.0333 2.92765H12.0325Z" fill="white"/>
<path d="M17.9898 4.29863C17.8811 4.14009 17.7091 3.99341 17.677 3.82044C17.629 3.55846 17.8313 3.36938 18.0767 3.41602C18.2318 3.44569 18.4299 3.63731 18.4704 3.79331C18.5344 4.03919 18.365 4.20876 17.9898 4.29863Z" fill="white"/>
<path d="M15.8323 0.501931C15.3661 0.57739 15.0288 0.479887 14.8965 0H16.1552C16.0296 0.195855 15.9132 0.376448 15.8331 0.501931H15.8323Z" fill="white"/>
<path d="M16.1684 2.32228H14.8447C14.983 2.12558 15.0993 1.9594 15.2157 1.79407H15.8219C15.9163 1.9382 16.0293 2.10947 16.1684 2.32228Z" fill="white"/>
<path d="M14.3994 0.507866C14.5967 0.629109 14.7358 0.715591 14.8749 0.801224V1.5024C14.7544 1.5804 14.5975 1.683 14.3994 1.81102V0.507866Z" fill="white"/>
<path d="M19.5866 28.4592C19.1709 28.4015 18.8345 28.3634 18.5024 28.3057C18.1609 28.2455 17.8178 28.1836 17.4839 28.0903C17.0548 27.9699 16.7235 28.0802 16.3947 28.5041C16.6948 28.4888 16.9207 28.4778 17.1458 28.4668C17.1551 28.5016 17.1728 28.5304 17.1661 28.5499C17.0171 28.9874 17.1186 29.3644 17.4704 29.6809C17.8245 29.998 18.1828 30.3109 18.5361 30.6229C17.5893 32.0151 13.6547 31.9947 12.4718 30.6068C12.7644 30.2134 13.019 29.7801 13.3604 29.4317C13.8165 28.9653 13.7423 28.4982 13.486 27.9564C12.9237 27.9564 12.3209 28.0378 11.7518 27.9352C11.0731 27.8131 10.3287 27.6732 9.77818 27.2968C8.2227 26.2335 6.47837 25.7791 4.68599 25.4128C4.30239 25.3348 3.91457 25.2712 3.49219 25.1941C3.54867 25.1398 3.57902 25.0864 3.62118 25.0737C6.83499 24.102 10.053 23.9986 13.2635 25.0788C14.0155 25.3323 14.6959 25.7282 15.2068 26.398C15.6612 26.1666 16.0524 26.3819 16.4714 26.554C17.1408 26.8287 17.8178 27.117 18.5192 27.2713C19.0335 27.3841 19.2653 27.7792 19.6051 28.0641C19.6776 28.1251 19.5925 28.3769 19.5857 28.4583L19.5866 28.4592Z" fill="white"/>
<path d="M21.197 31.9659C21.6775 33.1275 22.2778 34.1788 21.9305 35.4777C21.5241 35.2513 21.1295 35.0317 20.7013 34.7935C20.6515 34.9987 20.6035 35.1564 20.5756 35.3175C20.3573 36.5825 19.6997 37.5533 18.6509 38.2765C17.6004 39.0014 16.5626 39.745 15.5349 40.4682C14.4734 39.7153 13.3555 38.9226 12.2384 38.129C11.2706 37.4414 10.7192 36.4918 10.5067 35.3302C10.4772 35.1674 10.4309 35.008 10.3794 34.791C9.95116 35.0309 9.55491 35.253 9.15023 35.4803C8.78687 34.1805 9.40737 33.1249 9.88202 31.9769C10.8457 32.7044 12.0437 33.119 12.4922 34.4188C12.0319 34.4561 11.6095 34.49 11.1441 34.5273C11.494 35.8601 12.1617 36.8784 13.337 37.4956C14.0249 37.8568 14.97 37.2743 14.9894 36.4756C15.0197 35.2056 15.0029 33.9346 15.0063 32.6637C15.0063 32.4958 15.0063 32.3279 15.0063 32.1431H16.0753C16.0753 32.3585 16.0753 32.5797 16.0753 32.8002C16.0753 33.9863 16.0668 35.1725 16.0803 36.3586C16.0913 37.3447 17.1021 37.8984 17.936 37.3905C18.9915 36.747 19.596 35.7846 19.9366 34.5366C19.4813 34.4951 19.0581 34.4569 18.5927 34.4154C19.0193 33.1258 20.2317 32.7154 21.1978 31.9676L21.197 31.9659Z" fill="white"/>
<path d="M15.0447 19.7211C14.9267 19.627 14.8204 19.51 14.6889 19.4414C13.7278 18.9394 13.3661 17.7745 13.8905 16.8376C14.4208 15.8888 15.6357 15.5929 16.5513 16.2025C17.1549 16.6036 17.4129 17.1903 17.3665 17.9067C17.321 18.6164 16.9408 19.1081 16.338 19.4515C16.2199 19.5185 16.128 19.6347 16.0243 19.7279C16.166 19.7754 16.3076 19.8636 16.4501 19.8653C17.9946 19.8755 19.5391 19.8712 21.0837 19.8712C21.2354 19.8712 21.3863 19.8712 21.5634 19.8712V20.8089C19.733 21.0421 17.9053 21.2753 16.0193 21.5152C16.0193 22.118 15.9932 22.8073 16.0294 23.4933C16.0513 23.9002 15.8136 24.0181 15.5193 24.0707C15.247 24.119 15.0068 23.829 15.0059 23.5077C15.0042 22.8192 15.0059 22.1299 15.0059 21.5161C13.1292 21.277 11.3031 21.0438 9.45508 20.8081V19.8839H14.9545C14.9848 19.8297 15.0152 19.7754 15.0455 19.7211H15.0447ZM16.1904 18.7147C16.6179 18.4417 16.8185 17.9449 16.655 17.4031C16.5074 16.9173 16.0168 16.5553 15.5101 16.5595C14.9823 16.5646 14.4975 16.941 14.3593 17.454C14.2202 17.9686 14.4394 18.4604 14.968 18.7809C15.0304 18.4477 15.1374 18.0797 15.5421 18.1713C15.7672 18.2221 15.9417 18.496 16.1904 18.7147Z" fill="white"/>
<path d="M16.4247 26.2937C18.3899 24.8973 20.5102 24.2072 22.8464 24.3649C24.3825 24.4683 25.911 24.676 27.4429 24.8363C27.4429 24.8829 27.4429 24.9287 27.442 24.9753C26.7751 25.0932 26.0998 25.1788 25.4422 25.3365C24.5165 25.5586 23.59 25.7952 22.6913 26.1047C22.2124 26.27 21.7909 26.6024 21.344 26.8601C20.92 27.1043 20.4984 27.3536 20.0727 27.5943C19.867 27.7105 19.6823 27.6664 19.5845 27.4477C19.4311 27.1043 19.1267 27.0203 18.8097 26.9356C18.0139 26.7244 17.2189 26.5074 16.4238 26.2929L16.4247 26.2937Z" fill="white"/>
<path d="M21.9907 29.7784C21.2387 29.3681 20.6131 29.0264 19.9707 28.6762C20.0145 28.488 20.0567 28.304 20.1005 28.1166C20.2076 28.0759 20.3307 28.0581 20.4142 27.9911C21.0313 27.4951 21.6105 27.6512 22.1872 28.0683C22.3102 28.1573 22.4586 28.2107 22.7234 28.3464C22.7124 28.1107 22.7419 27.9394 22.6905 27.7978C22.5851 27.5096 22.5935 27.2323 22.8549 27.0865C23.0302 26.989 23.3152 26.9593 23.4981 27.0331C23.7764 27.1441 23.8455 27.4451 23.7291 27.7198C23.6044 28.0157 23.4256 28.2887 23.2469 28.616C24.1524 29.1519 25.0587 29.6979 25.9759 30.2261C26.2584 30.3889 26.5644 30.5161 26.8688 30.6348C27.2246 30.773 27.4159 31.0256 27.4353 31.3978C27.4539 31.7675 27.3055 32.0668 26.9615 32.2236C26.6125 32.3822 26.1892 32.3873 25.997 32.0727C25.6783 31.5496 25.1362 31.4479 24.6785 31.2079C23.9542 30.8281 23.187 30.5305 22.4165 30.1888C22.3212 30.4024 22.2428 30.6136 22.1366 30.8086C21.9755 31.1062 21.7218 31.3258 21.3862 31.1748C21.2109 31.096 21.0203 30.845 21.0043 30.6577C20.9765 30.3194 21.1797 30.0879 21.5624 30.0497C21.683 30.0379 21.7926 29.9098 21.9907 29.7801V29.7784Z" fill="white"/>
<path d="M8.44716 28.3617C9.1427 27.6189 9.86016 27.8275 10.5995 28.1946C10.8415 28.315 11.1282 28.3464 11.4924 28.4447C10.6805 28.8924 9.9411 29.2994 9.07273 29.7776C9.28771 29.9005 9.4167 30.0167 9.56508 30.0514C9.87112 30.1235 10.0709 30.3049 10.0355 30.6017C10.0119 30.8026 9.86016 31.1138 9.71768 31.1443C9.50438 31.1893 9.18823 31.096 9.02467 30.9434C8.83329 30.7645 8.75826 30.4584 8.62674 30.1939C7.56699 30.6678 6.50893 31.1358 5.45761 31.6183C5.35559 31.6649 5.28899 31.798 5.21733 31.8989C4.96188 32.2567 4.57828 32.3975 4.18456 32.2694C3.8389 32.1575 3.59525 31.7989 3.60789 31.4207C3.62138 31.0146 3.91224 30.7365 4.31945 30.583C4.78905 30.4058 5.24346 30.1735 5.67765 29.9183C6.3968 29.4952 7.09486 29.0357 7.80727 28.588C7.66057 28.3455 7.5046 28.1251 7.38994 27.886C7.24662 27.5884 7.20278 27.245 7.51472 27.0543C7.67659 26.9551 7.99021 26.9585 8.15883 27.0534C8.46402 27.2247 8.51039 27.5265 8.32997 27.8606C8.27349 27.9649 8.32154 28.1251 8.32154 28.2599L8.44801 28.3625L8.44716 28.3617Z" fill="white"/>
<path d="M16.9531 25.3552C16.4851 25.5815 16.1445 25.958 15.6277 25.824C15.4794 25.7859 15.3099 25.7604 15.1961 25.6706C14.3083 24.9711 13.3303 24.4853 12.2074 24.3047C11.9781 24.2674 11.742 24.1911 11.5396 24.0774C10.1216 23.2821 8.69595 22.5004 7.30908 21.6526C6.84792 21.3702 6.49551 20.9081 6.12793 20.48C6.89682 20.4198 7.605 20.5741 8.25333 20.892C9.86361 21.6822 11.4553 22.5114 13.0513 23.3313C14.3353 23.991 15.6142 24.6599 16.9531 25.3552Z" fill="white"/>
<path d="M24.9858 20.5241C24.5145 20.9505 24.093 21.4584 23.5619 21.7874C22.309 22.5632 21.0056 23.2559 19.7199 23.9765C19.0826 24.3335 18.4444 24.6896 17.791 25.0143C17.6493 25.0847 17.4183 25.0762 17.2708 25.0092C16.8644 24.8261 16.4808 24.5938 16.0391 24.3538C16.9622 23.8714 17.8272 23.411 18.699 22.9659C20.0993 22.2512 21.4879 21.5076 22.9161 20.8547C23.5239 20.5775 24.2211 20.4995 24.8771 20.3308C24.9133 20.3952 24.9496 20.4596 24.9858 20.5241Z" fill="white"/>
</g>
<defs>
<clipPath id="clip0_522_496">
<rect width="31" height="45" fill="white"/>
</clipPath>
</defs>
</svg>
