<svg width="48" height="49" viewBox="0 0 48 49" fill="none" xmlns="http://www.w3.org/2000/svg">
<g clip-path="url(#clip0_862_2342)">
<path d="M18.5707 13.4229C18.2604 13.5004 17.9272 13.5872 17.5803 13.6784C16.8638 13.8656 16.2431 13.9751 15.6725 14.039C15.102 13.9751 14.4768 13.8656 13.7648 13.6784C9.01818 12.4279 8.13275 12.51 4.73711 14.4817C1.76136 16.0472 0.0544045 20.5838 0.903316 25.6819C1.88458 31.5786 4.16204 31.9848 4.16204 38.3745C4.16204 44.7641 6.46688 47.895 8.31988 47.895C10.1729 47.895 11.1039 45.718 13.1349 40.2822C14.527 36.5534 16.5945 35.9601 18.2102 40.2822C20.2457 45.7226 21.1722 47.895 23.0252 47.895C24.8782 47.895 27.1785 44.723 27.1785 38.3745C27.1785 33.4362 28.5386 32.108 29.6157 28.9862" stroke="white" stroke-width="1.5" stroke-miterlimit="10" stroke-linecap="round"/>
<path d="M47.3156 14.8332C47.3156 22.6468 40.9807 28.9817 33.1671 28.9817C25.3534 28.9817 19.0186 22.6468 19.0186 14.8332C19.0186 7.01952 25.3534 0.684631 33.1671 0.684631" stroke="white" stroke-width="1.5" stroke-miterlimit="10" stroke-linecap="round"/>
<path d="M37.2695 1.28705C41.6601 2.61518 45.1516 6.01996 46.5939 10.3604" stroke="white" stroke-width="1.5" stroke-miterlimit="10" stroke-linecap="round"/>
<path d="M33.1674 24.3492C38.4229 24.3492 42.6834 20.0887 42.6834 14.8332C42.6834 9.57761 38.4229 5.31714 33.1674 5.31714C27.9118 5.31714 23.6514 9.57761 23.6514 14.8332C23.6514 20.0887 27.9118 24.3492 33.1674 24.3492Z" stroke="white" stroke-width="1.5" stroke-miterlimit="10" stroke-linecap="round"/>
<path d="M30.35 17.575V16.825H30.6C31 16.825 31.2 16.625 31.2 16.225V14.575H30.35V13.875H31.2V12.525C31.2 11.9383 31.3967 11.4516 31.79 11.065C32.19 10.6716 32.71 10.475 33.35 10.475C33.99 10.475 34.5067 10.6616 34.9 11.035C35.3 11.4083 35.5 11.8716 35.5 12.425H34.7C34.7 12.085 34.5767 11.8016 34.33 11.575C34.09 11.3416 33.7633 11.225 33.35 11.225C32.95 11.225 32.6233 11.3483 32.37 11.595C32.1233 11.835 32 12.145 32 12.525V13.875H33.95V14.575H32V16.225C32 16.425 31.95 16.5883 31.85 16.715C31.7967 16.7683 31.7467 16.805 31.7 16.825H35.65V17.575H30.35Z" fill="white"/>
</g>
<defs>
<clipPath id="clip0_862_2342">
<rect width="48" height="48.5751" fill="white"/>
</clipPath>
</defs>
</svg>
