<svg width="77" height="29" viewBox="0 0 77 29" fill="none" xmlns="http://www.w3.org/2000/svg">
<g clip-path="url(#clip0_862_2377)">
<path d="M70.9886 24.5448L71.4477 24.6279C71.6183 23.6993 71.7021 22.8046 71.7021 21.9468C71.7021 20.0589 71.2802 18.3525 70.4024 16.8644C69.5277 15.3763 68.2032 14.1187 66.4445 13.1103C64.7881 12.1571 63.0821 11.6775 61.3885 11.6775C59.3878 11.6775 57.4212 12.3478 55.588 13.6483C54.1178 14.6876 53.0104 15.899 52.2753 17.2641C51.537 18.6292 51.1772 20.145 51.1772 21.7715C51.1772 22.7523 51.3075 23.7731 51.5618 24.8339L52.0147 24.7263V24.2651H24.1075V24.7263L24.5603 24.8308C24.8085 23.7762 24.9388 22.7585 24.9388 21.7807C24.9388 20.1051 24.5603 18.5462 23.7849 17.1503C23.0094 15.7545 21.84 14.5277 20.286 13.4915C18.4838 12.2893 16.5824 11.6713 14.6717 11.6713C12.8013 11.6713 10.9309 12.2617 9.14732 13.4239C7.55608 14.46 6.35877 15.693 5.5647 17.1011C4.77063 18.5093 4.386 20.0835 4.386 21.7777C4.386 22.7339 4.50697 23.7301 4.74581 24.7631L5.19868 24.6617L5.12113 24.2066C5.00016 24.2282 4.87299 24.2374 4.74271 24.2374C4.02308 24.2374 3.19489 23.9207 2.51869 23.3765C1.83939 22.8353 1.32448 22.0851 1.16629 21.2704C1.0112 20.4925 0.933653 19.7392 0.933653 19.0074C0.933653 17.7284 1.17249 16.5262 1.66258 15.4009C2.15267 14.2756 2.90022 13.224 3.93313 12.2524C4.30225 11.905 4.87299 11.6221 5.42511 11.453C9.93208 10.0571 14.5476 9.14398 19.2407 8.55057C20.072 8.44296 20.9374 8.14165 21.6415 7.67123C25.1063 5.3468 28.7975 3.46204 32.6716 1.88475C34.2319 1.2483 35.8727 1.03 37.5757 0.962362C38.196 0.937765 38.8133 0.925467 39.4306 0.925467C42.7495 0.925467 46.0592 1.2729 49.3564 1.77407C52.3094 2.21989 55.2592 2.68416 58.1253 3.39748C60.1229 3.89249 62.0709 4.76877 64.0374 5.59892C66.6802 6.71194 69.3168 7.96332 72.279 8.47678C72.6543 8.54135 72.9769 8.68893 73.2561 8.90416C73.5384 9.12246 73.7803 9.41455 73.9788 9.7712C75.3684 12.2801 76.0726 14.8782 76.0726 17.5931C76.0726 18.6385 75.9671 19.7023 75.7562 20.7846C75.6569 21.295 75.477 21.7223 75.2133 22.0636C74.9497 22.408 74.6023 22.6785 74.1277 22.8722C73.0979 23.2873 72.0371 23.6624 70.8273 24.1175L70.9917 24.5479L71.1561 24.9784C72.3534 24.5295 73.4205 24.1513 74.4782 23.7239C75.0955 23.4749 75.5949 23.0967 75.9578 22.6201C76.3207 22.1436 76.5502 21.5778 76.6712 20.9598C76.8945 19.8222 77.0062 18.7 77.0062 17.5931C77.0062 14.7183 76.2556 11.9573 74.7977 9.32538C74.5496 8.87648 74.227 8.47986 73.833 8.17547C73.4391 7.868 72.9676 7.65585 72.4403 7.56361C69.6424 7.08397 67.071 5.87256 64.4034 4.74724C62.4493 3.92631 60.461 3.02545 58.3518 2.49968C55.4329 1.77407 52.4521 1.30672 49.4991 0.857825C46.1677 0.353584 42.8147 0 39.4275 0C38.7978 0 38.165 0.0122986 37.5322 0.0368957C35.7766 0.107612 34.0178 0.335136 32.3149 1.02693C28.3911 2.62574 24.641 4.53817 21.1173 6.90257C20.559 7.27767 19.8083 7.54517 19.1197 7.63126C14.3832 8.23081 9.71185 9.1532 5.14285 10.5706C4.49766 10.7735 3.81526 11.0902 3.28795 11.5791C2.17439 12.6245 1.3462 13.7836 0.803376 15.0319C0.260554 16.2802 0 17.6146 0 19.0043C0 19.8007 0.0837496 20.6155 0.251249 21.4456C0.465276 22.5156 1.11356 23.4349 1.93244 24.0898C2.75443 24.7447 3.75632 25.1506 4.74271 25.1536C4.92262 25.1536 5.09942 25.1413 5.27623 25.1106L5.76321 25.0306L5.65155 24.5541C5.42821 23.5825 5.31345 22.6539 5.31345 21.7746C5.31345 20.2158 5.66395 18.8106 6.37427 17.547C7.0877 16.2833 8.16714 15.161 9.65602 14.1925C11.3124 13.1164 12.9967 12.5937 14.6686 12.5906C16.3777 12.5906 18.0899 13.1379 19.7649 14.251C21.2166 15.2195 22.2712 16.3356 22.966 17.59C23.6608 18.8445 24.0051 20.2373 24.0051 21.7777C24.0051 22.6755 23.8872 23.6225 23.6515 24.6186L23.5181 25.1844H52.6041L52.4676 24.6156C52.2287 23.6194 52.1078 22.6693 52.1078 21.7684C52.1078 20.2742 52.4335 18.9213 53.0941 17.6946C53.7548 16.4678 54.7567 15.364 56.1277 14.3924C57.8338 13.1871 59.6018 12.5937 61.3885 12.5937C62.9053 12.5937 64.4438 13.0211 65.9792 13.9035C67.6263 14.8505 68.8143 15.9912 69.599 17.3256C70.3838 18.66 70.7715 20.1912 70.7715 21.9437C70.7715 22.737 70.6909 23.5763 70.5296 24.4588L70.3838 25.2612L71.153 24.9722L70.9886 24.5418V24.5448ZM40.144 3.82793V3.36673C39.4554 3.36673 38.7947 3.34828 38.1371 3.34828C37.709 3.34828 37.2872 3.35751 36.8591 3.38518C36.4094 3.41592 35.9255 3.4313 35.4354 3.48664C34.9453 3.54506 34.449 3.64037 33.9806 3.8433C31.2603 5.03011 28.6144 6.35221 25.9593 7.62818C25.5467 7.82803 25.2148 8.08323 24.9015 8.27693L24.641 8.43989L24.6906 8.7412C24.7092 8.85804 24.7309 8.97795 24.7496 9.09478L24.8147 9.47911H25.2055C25.4351 9.48219 25.6677 9.48526 25.8972 9.48526C30.671 9.48526 35.4199 9.17472 40.1533 9.06096L40.6062 9.04867V3.36673H40.1409V3.82793H39.6756V8.60284H40.1409L40.1285 8.14165C35.3702 8.25541 30.6275 8.56595 25.8941 8.56595C25.6646 8.56595 25.4382 8.56595 25.2086 8.56595V9.02714L25.6646 8.95335C25.646 8.83651 25.6243 8.7166 25.6057 8.59977L25.1466 8.67356L25.3947 9.06404C25.7546 8.83651 26.0616 8.60592 26.3625 8.46448C29.027 7.18236 31.6604 5.86641 34.3497 4.6919C34.694 4.54124 35.1004 4.45515 35.5408 4.40596C35.9813 4.35369 36.4497 4.33832 36.9181 4.30757C37.3182 4.28297 37.7214 4.27375 38.1371 4.27375C38.7761 4.27375 39.4368 4.2922 40.144 4.2922V3.831V3.82793ZM43.4195 8.37532L43.3047 8.82114C43.3575 8.83344 43.3885 8.84574 43.4288 8.85804C43.4691 8.87034 43.5343 8.89186 43.6428 8.89186H43.6646C47.9947 8.74428 52.328 8.59669 56.6582 8.43681C56.8412 8.42759 56.9901 8.37532 57.1327 8.30153C57.2041 8.26463 57.2723 8.21851 57.3406 8.16317C57.4057 8.10782 57.4739 8.04018 57.5298 7.94179C57.8338 7.41296 58.0695 6.87797 58.358 6.29379L58.6123 5.7711L58.0416 5.64196C53.1903 4.53509 48.4042 3.61578 43.435 3.46512L42.9542 3.44975V8.73198L43.3047 8.82114L43.4195 8.37532H43.8848V3.92939H43.4195L43.404 4.39059C48.2739 4.54124 53.0011 5.44211 57.8307 6.54591L57.9361 6.09701L57.5174 5.89408C57.2227 6.49671 56.9901 7.0194 56.7202 7.48675L56.8505 7.56054L56.7388 7.46215L56.7233 7.48675L56.8536 7.56054L56.7419 7.46215L56.776 7.4929L56.745 7.46215L56.7791 7.4929L56.7481 7.46215L56.7295 7.47445L56.6613 7.50827L56.6333 7.51749H56.6271V7.54209V7.52057C52.297 7.68352 47.9668 7.82803 43.6366 7.97562L43.6491 8.3046V7.97562H43.6366L43.6491 8.3046V7.97562V8.25848L43.708 7.98176C43.708 7.98176 43.677 7.97562 43.6491 7.97562V8.25848L43.708 7.98176L43.6863 8.08015L43.7111 7.98176H43.708L43.6863 8.08015L43.7111 7.98176C43.7111 7.98176 43.6366 7.95717 43.5405 7.93257L43.4257 8.37839L43.4195 8.37532Z" fill="white"/>
<path d="M21.4651 21.9376H20.9998V21.956C20.9998 25.3104 18.2329 28.0684 14.8519 28.0807H14.8271C13.1304 28.0807 11.5795 27.3889 10.4473 26.2759C9.31516 25.1629 8.61414 23.6378 8.61414 21.9714V21.9376C8.62965 18.6047 11.4585 15.8129 14.8147 15.816C18.1864 15.816 20.9905 18.5893 20.9967 21.9376H21.462H21.9272C21.9148 18.0727 18.7106 14.8997 14.8147 14.8966C10.9312 14.9028 7.70841 18.082 7.68359 21.9345V21.9745C7.68359 23.8992 8.49627 25.6579 9.79284 26.9338C11.0894 28.2098 12.8761 29.0062 14.8302 29.0062H14.8581C18.7572 28.9908 21.9303 25.8239 21.9334 21.9591V21.9406H21.4682L21.4651 21.9376Z" fill="white"/>
<path d="M68.4237 21.9622H67.9584C67.9491 25.335 65.1606 28.0776 61.7454 28.0776H61.7051C58.3551 28.0592 55.5728 25.2797 55.5759 21.9745V21.913C55.6069 18.5677 58.411 15.8129 61.7672 15.8159H61.792C65.1513 15.8252 67.9615 18.62 67.9584 21.9437V21.9652H68.4237H68.889V21.9437C68.8828 18.1004 65.6786 14.9151 61.7982 14.8936H61.7703C57.893 14.8966 54.6919 18.0481 54.6484 21.9037V21.9745C54.6515 25.7993 57.8309 28.9723 61.6989 29H61.7485C65.6755 29 68.8797 25.8516 68.8921 21.9652H68.4268L68.4237 21.9622Z" fill="white"/>
</g>
<defs>
<clipPath id="clip0_862_2377">
<rect width="77" height="29" fill="white"/>
</clipPath>
</defs>
</svg>
