<svg width="60" height="30" viewBox="0 0 60 30" fill="none" xmlns="http://www.w3.org/2000/svg">
<g clip-path="url(#clip0_862_2397)">
<path d="M16.705 0.592635V29.3642C16.5347 29.3799 16.3882 29.4035 16.2378 29.4035C14.5353 29.4035 12.8327 29.4152 11.1302 29.4035C9.0951 29.3917 7.83603 28.1437 7.83207 26.1382C7.82811 18.7127 7.82811 11.2873 7.83207 3.86187C7.83207 1.85637 9.0951 0.604409 11.1223 0.592635C12.9555 0.580861 14.7886 0.592635 16.6971 0.592635H16.705Z" stroke="white" stroke-miterlimit="10"/>
<path d="M43.2959 29.3603V0.627939C43.4899 0.616165 43.6562 0.596541 43.8225 0.596541C45.5052 0.596541 47.1879 0.584768 48.8707 0.596541C50.9018 0.608315 52.1609 1.86028 52.1609 3.86577C52.1648 11.2912 52.1648 18.7166 52.1609 26.1421C52.1609 28.124 50.9097 29.3877 48.9221 29.4034C47.1246 29.4191 45.327 29.4034 43.5295 29.4034C43.4741 29.4034 43.4186 29.3838 43.2959 29.3642V29.3603Z" stroke="white" stroke-miterlimit="10"/>
<path d="M40.5277 20.1452H19.46V9.87048H40.5277V20.1452Z" stroke="white" stroke-miterlimit="10"/>
<path d="M5.1594 22.2802C4.38336 22.241 3.66672 22.292 2.98571 22.1546C1.60786 21.876 0.637817 20.7221 0.62198 19.3132C0.586346 16.2088 0.582386 13.1044 0.62198 9.99608C0.641777 8.34773 1.84146 7.20566 3.58357 7.0369C4.63412 6.93486 5.1594 7.39142 5.1594 8.4066C5.1594 12.7787 5.1594 17.1546 5.1594 21.5267V22.2802Z" stroke="white" stroke-miterlimit="10"/>
<path d="M54.841 22.241V21.5856C54.841 16.9466 54.8489 12.3077 54.8291 7.66876C54.8291 7.15071 54.9637 6.94662 55.4982 7.00942C56.0288 7.07221 56.5791 7.02119 57.0899 7.14286C58.4519 7.45683 59.3784 8.64992 59.3863 10.106C59.4061 13.1358 59.4101 16.1656 59.3863 19.1954C59.3705 20.9184 58.1272 22.1546 56.397 22.241C55.906 22.2645 55.4111 22.241 54.841 22.241Z" stroke="white" stroke-miterlimit="10"/>
</g>
<defs>
<clipPath id="clip0_862_2397">
<rect width="60" height="30" fill="white"/>
</clipPath>
</defs>
</svg>
