<svg width="49" height="49" viewBox="0 0 49 49" fill="none" xmlns="http://www.w3.org/2000/svg">
<g clip-path="url(#clip0_862_2381)">
<path d="M48.3989 24.5H47.7978C47.7978 30.9356 45.1892 36.758 40.9736 40.9736C36.754 45.1892 30.9356 47.7978 24.5 47.7978C18.0644 47.7978 12.242 45.1892 8.02641 40.9736C3.81084 36.758 1.20216 30.9356 1.20216 24.5C1.20216 18.0644 3.81084 12.242 8.02641 8.02641C12.246 3.81084 18.0644 1.20216 24.5 1.20216C30.9356 1.20216 36.758 3.81084 40.9736 8.02641C45.1892 12.246 47.7978 18.0644 47.7978 24.5H49C49 10.9677 38.0323 0 24.5 0C10.9677 0 0 10.9677 0 24.5C0 38.0323 10.9677 49 24.5 49C38.0323 49 49 38.0323 49 24.5H48.3989Z" fill="white"/>
<path d="M23.9029 23.9029H23.4421C21.8513 23.9029 20.2564 23.9029 18.6655 23.9029C18.5333 23.9029 18.393 23.8909 18.2648 23.9189C17.9683 23.983 17.8 24.1834 17.792 24.4839C17.7839 24.8045 17.9563 25.0129 18.2688 25.081C18.385 25.1091 18.5093 25.097 18.6335 25.097C20.5048 25.097 22.3762 25.097 24.2476 25.097C24.9408 25.097 25.1011 24.9368 25.1011 24.2355C25.1011 21.3183 25.1011 18.401 25.1011 15.4838C25.1011 15.3756 25.1051 15.2634 25.0931 15.1552C25.057 14.8346 24.8206 14.6262 24.508 14.6222C24.1955 14.6222 23.951 14.8306 23.915 15.1432C23.8989 15.2754 23.9069 15.4117 23.9069 15.5439C23.9069 18.1686 23.9069 20.7933 23.9069 23.418V23.8949L23.9029 23.9029ZM11.7411 16.6699C11.689 16.5938 11.6089 16.3774 11.4566 16.2812C10.6912 15.8124 9.90981 15.3676 9.1244 14.9308C8.82386 14.7625 8.49928 14.8747 8.33097 15.1472C8.16267 15.4277 8.21877 15.7723 8.5113 15.9486C9.2927 16.4175 10.0781 16.8823 10.8795 17.3111C11.2843 17.5275 11.7291 17.2309 11.7411 16.6659V16.6699ZM34.2215 40.2242L34.1574 40.1481C34.1333 40.0679 34.1293 39.9758 34.0892 39.9076C33.6324 39.1062 33.1796 38.3008 32.6987 37.5113C32.5344 37.2389 32.1858 37.1908 31.9213 37.343C31.6569 37.4953 31.5166 37.8199 31.6729 38.0964C32.1217 38.9179 32.5905 39.7273 33.0794 40.5248C33.2237 40.7572 33.5042 40.8533 33.7566 40.7051C33.941 40.5929 34.0692 40.3845 34.2215 40.2202V40.2242ZM34.1493 8.91599C34.1373 8.55534 33.9931 8.35097 33.7005 8.26682C33.384 8.17466 33.1515 8.31892 32.9993 8.58339C32.5745 9.30469 32.1538 10.03 31.741 10.7593C31.5366 11.1199 31.6128 11.4686 31.9133 11.6529C32.2339 11.8452 32.5745 11.733 32.7989 11.3524C33.2117 10.6511 33.6164 9.94584 34.0171 9.23656C34.0812 9.12436 34.1173 8.99613 34.1493 8.92V8.91599ZM15.564 40.7612C15.6361 40.7211 15.7723 40.649 15.9046 40.5688C15.9446 40.5448 15.9687 40.4967 15.9927 40.4526C16.4295 39.6953 16.8743 38.9419 17.3031 38.1805C17.4834 37.86 17.3872 37.5234 17.1027 37.3511C16.8423 37.1908 16.4856 37.2308 16.3213 37.4993C15.8365 38.2968 15.3596 39.1062 14.9188 39.9277C14.7104 40.3164 15.051 40.7772 15.56 40.7612H15.564ZM17.4634 11.2241L17.3993 11.152C17.3832 11.0799 17.3872 10.9997 17.3552 10.9396C16.8783 10.1061 16.4175 9.26862 15.9126 8.45115C15.7483 8.18668 15.4437 8.16664 15.1632 8.32693C14.8988 8.4792 14.7745 8.80779 14.9268 9.08429C15.3716 9.89374 15.8365 10.6912 16.3093 11.4846C16.4576 11.729 16.7341 11.8172 16.9785 11.693C17.1708 11.5968 17.3031 11.3844 17.4634 11.2241ZM40.7692 15.584C40.7772 14.9869 40.2763 14.7064 39.8235 14.9588C39.0822 15.3716 38.3449 15.8044 37.6156 16.2331C37.2709 16.4375 37.1748 16.7661 37.3431 17.0666C37.5114 17.3672 37.856 17.4714 38.1926 17.283C38.946 16.8623 39.6953 16.4375 40.4326 15.9847C40.6009 15.8805 40.6971 15.6681 40.7692 15.58V15.584ZM11.1921 31.5406L11.124 31.6087C11.0519 31.6248 10.9717 31.6248 10.9116 31.6608C10.0901 32.1337 9.26064 32.5905 8.4592 33.0914C8.19473 33.2557 8.15866 33.5643 8.32697 33.8407C8.49126 34.1132 8.77176 34.2455 9.04826 34.0972C9.88176 33.6484 10.6992 33.1715 11.5087 32.6787C11.7531 32.5304 11.8252 32.2419 11.685 32.0014C11.5768 31.8131 11.3604 31.6929 11.1921 31.5406ZM40.1161 34.1453C40.4567 34.1172 40.653 33.981 40.7332 33.7045C40.8253 33.3879 40.6891 33.1555 40.4246 32.9992C39.6913 32.5705 38.954 32.1417 38.2126 31.7249C37.856 31.5246 37.5034 31.6208 37.3311 31.9333C37.1668 32.2379 37.2669 32.5625 37.6116 32.7668C38.3329 33.1916 39.0622 33.6083 39.7915 34.0211C39.9037 34.0852 40.0359 34.1172 40.112 34.1453H40.1161ZM25.0971 7.71784C25.0971 7.29307 25.1051 6.86831 25.0971 6.44355C25.0851 6.05886 24.8286 5.81041 24.484 5.81843C24.1514 5.83045 23.911 6.07088 23.9069 6.44355C23.8989 7.3051 23.8989 8.17065 23.9069 9.0322C23.9069 9.4209 24.1594 9.67736 24.5 9.67736C24.8406 9.67736 25.0891 9.4209 25.0971 9.0322C25.1051 8.59541 25.0971 8.15863 25.0971 7.71784ZM7.77397 25.097C8.19873 25.097 8.6235 25.1051 9.04826 25.097C9.41292 25.089 9.66537 24.8446 9.67338 24.52C9.6854 24.1794 9.42494 23.9149 9.04425 23.9109C8.18271 23.9029 7.31715 23.9029 6.4556 23.9109C6.0629 23.9109 5.81445 24.1634 5.81445 24.508C5.81445 24.8526 6.06691 25.093 6.45961 25.1011C6.8964 25.1091 7.33318 25.1011 7.76996 25.1011L7.77397 25.097ZM41.2902 25.097C41.7149 25.097 42.1397 25.1051 42.5645 25.097C42.9331 25.089 43.1776 24.8486 43.1856 24.516C43.1936 24.1714 42.9411 23.9109 42.5564 23.9069C41.6949 23.8989 40.8293 23.8989 39.9678 23.9069C39.5831 23.9069 39.3226 24.1634 39.3266 24.508C39.3266 24.8486 39.5871 25.093 39.9758 25.1011C40.4126 25.1091 40.8494 25.1011 41.2862 25.1011L41.2902 25.097ZM25.1011 41.2701C25.1011 40.8453 25.1091 40.4206 25.1011 39.9958C25.0931 39.5831 24.8446 39.3186 24.492 39.3266C24.1514 39.3346 23.911 39.5911 23.911 39.9838C23.9029 40.8333 23.9029 41.6828 23.911 42.5364C23.911 42.9291 24.1554 43.1815 24.5 43.1855C24.8446 43.1855 25.0931 42.9371 25.1011 42.5484C25.1131 42.1236 25.1011 41.6989 25.1011 41.2741V41.2701Z" fill="white"/>
<path d="M23.9033 23.903V23.4261C23.9033 20.8014 23.9033 18.1767 23.9033 15.552C23.9033 15.4197 23.8993 15.2835 23.9113 15.1512C23.9474 14.8347 24.1919 14.6263 24.5044 14.6303C24.821 14.6303 25.0534 14.8427 25.0895 15.1633C25.1015 15.2715 25.0975 15.3837 25.0975 15.4919C25.0975 18.4091 25.0975 21.3263 25.0975 24.2436C25.0975 24.9448 24.9372 25.1051 24.2439 25.1051C22.3726 25.1051 20.5012 25.1051 18.6299 25.1051C18.5096 25.1051 18.3814 25.1131 18.2652 25.0891C17.9526 25.021 17.7803 24.8086 17.7884 24.492C17.7964 24.1915 17.9647 23.9911 18.2612 23.927C18.3894 23.899 18.5257 23.911 18.6619 23.911C20.2528 23.911 21.8476 23.911 23.4385 23.911H23.8993L23.9033 23.903Z" fill="white"/>
<path d="M11.7366 16.6699C11.7246 17.2349 11.2798 17.5315 10.875 17.3151C10.0736 16.8863 9.28819 16.4215 8.50679 15.9526C8.21427 15.7763 8.15817 15.4317 8.32647 15.1512C8.49076 14.8747 8.81535 14.7665 9.11989 14.9348C9.9053 15.3716 10.6867 15.8164 11.4521 16.2852C11.6044 16.3774 11.6805 16.5978 11.7366 16.6739V16.6699Z" fill="white"/>
<path d="M34.2176 40.2242C34.0654 40.3885 33.9371 40.5969 33.7528 40.7091C33.5044 40.8574 33.2199 40.7612 33.0756 40.5288C32.5867 39.7313 32.1219 38.9219 31.6691 38.1004C31.5168 37.8239 31.653 37.4993 31.9175 37.3471C32.182 37.1948 32.5306 37.2429 32.6949 37.5154C33.1718 38.3048 33.6246 39.1102 34.0854 39.9117C34.1255 39.9838 34.1335 40.0719 34.1535 40.1521L34.2176 40.2282V40.2242Z" fill="white"/>
<path d="M34.145 8.91603C34.113 8.99217 34.0769 9.1204 34.0128 9.2326C33.6121 9.94188 33.2074 10.6471 32.7946 11.3484C32.5702 11.7331 32.2296 11.8413 31.909 11.6489C31.6045 11.4686 31.5323 11.12 31.7367 10.7553C32.1495 10.026 32.5702 9.30072 32.995 8.57943C33.1513 8.31495 33.3837 8.1707 33.6962 8.26286C33.9848 8.34701 34.133 8.55539 34.145 8.91203V8.91603Z" fill="white"/>
<path d="M15.5602 40.7612C15.0473 40.7773 14.7107 40.3164 14.9191 39.9277C15.3599 39.1022 15.8367 38.2968 16.3216 37.4994C16.4819 37.2309 16.8425 37.1908 17.103 37.3511C17.3835 37.5234 17.4797 37.856 17.3033 38.1806C16.8786 38.946 16.4338 39.6993 15.993 40.4527C15.9689 40.4927 15.9449 40.5448 15.9048 40.5689C15.7726 40.649 15.6364 40.7212 15.5642 40.7612H15.5602Z" fill="white"/>
<path d="M17.4598 11.2282C17.2995 11.3884 17.1673 11.6008 16.975 11.697C16.7265 11.8212 16.45 11.7331 16.3058 11.4886C15.8329 10.6952 15.3681 9.89777 14.9233 9.08831C14.771 8.80781 14.8912 8.48323 15.1597 8.33095C15.4402 8.17066 15.7488 8.19471 15.909 8.45518C16.4139 9.26864 16.8788 10.1101 17.3516 10.9436C17.3877 11.0038 17.3837 11.0839 17.3957 11.156L17.4598 11.2282Z" fill="white"/>
<path d="M40.7648 15.588C40.6927 15.6762 40.5965 15.8925 40.4282 15.9927C39.6949 16.4455 38.9415 16.8703 38.1882 17.2911C37.8476 17.4794 37.503 17.3752 37.3387 17.0747C37.1704 16.7701 37.2665 16.4415 37.6112 16.2412C38.3445 15.8084 39.0778 15.3796 39.8191 14.9669C40.2719 14.7144 40.7728 14.9949 40.7648 15.592V15.588Z" fill="white"/>
<path d="M11.1923 31.5406C11.3606 31.6929 11.577 31.8171 11.6852 32.0015C11.8214 32.2419 11.7533 32.5304 11.5089 32.6787C10.6994 33.1676 9.88196 33.6484 9.04846 34.0972C8.77197 34.2455 8.49146 34.1133 8.32717 33.8408C8.16287 33.5643 8.19493 33.2557 8.4594 33.0914C9.26485 32.5905 10.0903 32.1297 10.9118 31.6609C10.9719 31.6248 11.0521 31.6248 11.1242 31.6088L11.1923 31.5406Z" fill="white"/>
<path d="M40.116 34.1453C40.0398 34.1173 39.9076 34.0852 39.7954 34.0211C39.0661 33.6084 38.3408 33.1916 37.6155 32.7668C37.2709 32.5625 37.1707 32.2379 37.335 31.9334C37.5073 31.6168 37.8599 31.5246 38.2166 31.725C38.9579 32.1417 39.6952 32.5665 40.4285 32.9993C40.693 33.1555 40.8292 33.388 40.7371 33.7045C40.6569 33.981 40.4566 34.1173 40.12 34.1453H40.116Z" fill="white"/>
<path d="M25.0975 7.71788C25.0975 8.15466 25.1055 8.59145 25.0975 9.03224C25.0895 9.42094 24.8411 9.6774 24.5004 9.6774C24.1598 9.6774 23.9074 9.42094 23.9074 9.03224C23.8994 8.17069 23.8994 7.30514 23.9074 6.44359C23.9074 6.07092 24.1518 5.83049 24.4844 5.81847C24.829 5.80644 25.0855 6.0589 25.0975 6.44359C25.1095 6.86835 25.0975 7.29311 25.0975 7.71788Z" fill="white"/>
<path d="M7.77387 25.0971C7.33709 25.0971 6.9003 25.1051 6.46352 25.0971C6.07081 25.0891 5.82237 24.8486 5.81836 24.504C5.81836 24.1594 6.06681 23.911 6.45951 23.907C7.32106 23.8989 8.18661 23.8989 9.04816 23.907C9.42884 23.911 9.68931 24.1794 9.67729 24.516C9.66527 24.8446 9.41682 25.0851 9.05217 25.0931C8.6274 25.1051 8.20264 25.0931 7.77788 25.0931L7.77387 25.0971Z" fill="white"/>
<path d="M41.2857 25.0971C40.8489 25.0971 40.4121 25.1051 39.9753 25.0971C39.5866 25.0891 39.3302 24.8446 39.3262 24.504C39.3262 24.1634 39.5826 23.9069 39.9673 23.9029C40.8289 23.8949 41.6944 23.8949 42.556 23.9029C42.9407 23.9069 43.1931 24.1674 43.1851 24.512C43.1771 24.8446 42.9367 25.081 42.564 25.0931C42.1392 25.1051 41.7145 25.0931 41.2897 25.0931L41.2857 25.0971Z" fill="white"/>
<path d="M25.1014 41.2701C25.1014 41.6949 25.1094 42.1196 25.1014 42.5444C25.0934 42.9331 24.845 43.1856 24.5003 43.1816C24.1557 43.1816 23.9153 42.9291 23.9113 42.5324C23.9033 41.6829 23.9033 40.8333 23.9113 39.9798C23.9113 39.5871 24.1517 39.3306 24.4923 39.3226C24.845 39.3146 25.0934 39.5791 25.1014 39.9918C25.1094 40.4166 25.1014 40.8414 25.1014 41.2661V41.2701Z" fill="white"/>
</g>
<defs>
<clipPath id="clip0_862_2381">
<rect width="49" height="49" fill="white"/>
</clipPath>
</defs>
</svg>
