<svg width="49" height="48" viewBox="0 0 49 48" fill="none" xmlns="http://www.w3.org/2000/svg">
<g clip-path="url(#clip0_862_2371)">
<path d="M36.0181 25.8471C28.8601 25.8471 23.0361 20.0494 23.0361 12.9235C23.0361 5.7977 28.8601 0 36.0181 0C36.3497 0 36.6173 0.266424 36.6173 0.596471C36.6173 0.926518 36.3497 1.19294 36.0181 1.19294C29.5191 1.19294 24.2345 6.45381 24.2345 12.9235C24.2345 19.3933 29.5191 24.6541 36.0181 24.6541C42.5171 24.6541 47.8018 19.3933 47.8018 12.9235C47.8018 12.5935 48.0694 12.3271 48.4009 12.3271C48.7325 12.3271 49.0001 12.5935 49.0001 12.9235C49.0001 20.0494 43.1762 25.8471 36.0181 25.8471Z" fill="white"/>
<path d="M23.6553 13.4445C23.2718 13.4286 22.8883 13.4246 22.4969 13.4246C20.3239 13.4246 18.1868 13.7029 16.1417 14.2517L16.2975 14.8283L16.7169 14.4028C15.8022 13.5041 14.3681 12.2754 12.9142 11.2733C12.1712 10.7643 11.5241 10.3786 10.9449 10.1122C10.3657 9.84576 9.85042 9.69465 9.35111 9.69067C8.93968 9.69067 8.53225 9.81394 8.21669 10.0645C8.00498 10.2315 7.82922 10.4343 7.70939 10.6689C7.58956 10.9035 7.52564 11.1659 7.52964 11.4324C7.52964 11.6113 7.5576 11.7863 7.60553 11.9612C7.74135 12.4225 7.989 12.7883 8.23666 13.178C8.62811 13.7864 9.05552 14.4664 9.22728 15.3532C9.26323 15.5401 9.27921 15.723 9.27921 15.9099C9.27921 16.8125 8.86778 17.7033 8.1328 18.3156C6.24742 19.8863 4.75749 21.7791 3.80681 23.827L4.35005 24.0776V23.4811H3.16769C1.41812 23.4811 -0.00390625 24.8967 -0.00390625 26.6384V32.1816C-0.00390625 33.9233 1.41812 35.3389 3.16769 35.3389H4.34606V34.7424L3.80281 34.993C5.29674 38.2139 8.05691 40.9617 11.624 42.8226L11.9036 42.2938H11.3044V44.8785C11.3044 46.3816 12.3749 47.6779 13.8529 47.9762C13.9288 47.9921 14.0047 48 14.0845 48H16.0179C16.0938 48 16.1736 47.9921 16.2495 47.9762C17.7315 47.6819 18.798 46.3816 18.798 44.8785V44.4212H18.1988L18.091 45.0097C19.533 45.2682 21.0069 45.3994 22.4889 45.3994C23.9708 45.3994 25.4488 45.2682 26.8868 45.0097L26.7789 44.4212H26.1798V44.8785C26.1798 46.3816 27.2503 47.6779 28.7282 47.9762C28.8041 47.9921 28.88 48 28.9599 48H30.8932C30.9691 48 31.049 47.9921 31.1249 47.9762C32.6068 47.6819 33.6734 46.3816 33.6734 44.8785V42.2977H33.0742L33.3498 42.8266C36.1779 41.3752 38.2071 39.8323 39.661 37.9833C41.5065 35.6411 42.4012 32.798 42.3973 29.41V29.3543V29.3464V29.3384C42.2854 27.5888 41.9099 25.9028 41.2948 24.3281C41.1749 24.0219 40.8274 23.8708 40.5199 23.9901C40.2123 24.1094 40.0605 24.4553 40.1803 24.7615C40.7515 26.2209 41.0991 27.7836 41.2029 29.418L41.8021 29.3782L41.2029 29.3981V29.4339L41.8021 29.414H41.2029C41.2029 32.5991 40.388 35.1242 38.7224 37.2516C37.4082 38.9257 35.5388 40.3652 32.8066 41.7689L32.483 41.9359V44.8825C32.483 45.813 31.8119 46.6281 30.8972 46.8071H28.9639C28.0532 46.6281 27.3821 45.813 27.3821 44.8825V43.7134L26.6751 43.8406C25.305 44.0872 23.9029 44.2104 22.4889 44.2104C21.0788 44.2104 19.6728 44.0872 18.3027 43.8406L17.5957 43.7134V44.8825C17.5957 45.813 16.9246 46.6281 16.0099 46.8071H14.0766C13.1658 46.6281 12.4947 45.813 12.4947 44.8825V41.9359L12.1752 41.7689C8.81186 40.0153 6.24742 37.4425 4.88531 34.4959L4.72553 34.15H3.1637C2.62045 34.15 2.12913 33.9312 1.76963 33.5734C1.41013 33.2155 1.19044 32.7264 1.19044 32.1856V26.6424C1.19044 26.1016 1.41013 25.6125 1.76963 25.2546C2.12913 24.8967 2.62045 24.678 3.1637 24.678H4.72553L4.88531 24.332C5.75211 22.4591 7.13419 20.6975 8.89175 19.2342C9.89835 18.3952 10.4696 17.1744 10.4696 15.9099C10.4696 15.6514 10.4456 15.389 10.3977 15.1305C10.178 13.9853 9.63072 13.1462 9.23927 12.5339C8.98762 12.1481 8.80387 11.8419 8.74795 11.6312C8.72398 11.5556 8.71599 11.488 8.71599 11.4324C8.71599 11.3449 8.73197 11.2773 8.76792 11.2097C8.80387 11.1421 8.8558 11.0705 8.94767 10.9989C9.04753 10.9234 9.1434 10.8836 9.33913 10.8836C9.5748 10.8836 9.94629 10.9671 10.4296 11.1938C10.9169 11.4165 11.5121 11.7704 12.2191 12.2555C13.5972 13.2019 15.0033 14.4068 15.8581 15.2538L16.1017 15.4963L16.4333 15.4088C18.3746 14.8879 20.4038 14.6215 22.4769 14.6215C22.8524 14.6215 23.2239 14.6295 23.5913 14.6414C23.9229 14.6533 24.1985 14.3948 24.2105 14.0688C24.2225 13.7427 23.9628 13.4643 23.6353 13.4524L23.6553 13.4445Z" fill="white"/>
<path d="M39.4009 17.6396V16.6097H33.9484C34.0123 16.5819 34.0802 16.5302 34.1561 16.4586C34.2959 16.2837 34.3638 16.061 34.3638 15.7866V13.52H37.0561V12.5577H34.3638V10.7047C34.3638 10.1837 34.5356 9.75429 34.8831 9.42026C35.2266 9.08624 35.678 8.91923 36.2293 8.91923C36.7805 8.91923 37.2518 9.07829 37.5874 9.39243C37.9229 9.70657 38.0907 10.1002 38.0907 10.5655H39.1931C39.1931 9.80598 38.9175 9.16975 38.3703 8.65678C37.823 8.14382 37.108 7.88535 36.2253 7.88535C35.3425 7.88535 34.6275 8.15177 34.0802 8.68859C33.533 9.22542 33.2574 9.89744 33.2574 10.7007V12.5537H32.083V13.516H33.2574V15.7826C33.2574 16.3314 32.9818 16.6057 32.4305 16.6057H32.087V17.6357H39.4009V17.6396Z" fill="white"/>
<path d="M47.7694 9.62306C47.5177 9.62306 47.2861 9.46401 47.2022 9.21349C45.9959 5.60285 43.0919 2.79148 39.437 1.69C39.1214 1.59457 38.9416 1.26054 39.0375 0.9464C39.1334 0.632259 39.4689 0.453317 39.7845 0.548753C43.8109 1.76158 47.0104 4.85925 48.3406 8.83572C48.4445 9.14986 48.2767 9.48786 47.9611 9.59125C47.8972 9.61113 47.8333 9.62306 47.7734 9.62306H47.7694Z" fill="white"/>
<path d="M36.0184 21.811C31.0973 21.811 27.0908 17.8265 27.0908 12.9235C27.0908 8.02056 31.0933 4.03613 36.0184 4.03613C40.9436 4.03613 44.946 8.02056 44.946 12.9235C44.946 17.8265 40.9436 21.811 36.0184 21.811ZM36.0184 5.23305C31.7563 5.23305 28.2892 8.68463 28.2892 12.9275C28.2892 17.1704 31.7563 20.622 36.0184 20.622C40.2805 20.622 43.7477 17.1704 43.7477 12.9275C43.7477 8.68463 40.2805 5.23305 36.0184 5.23305Z" fill="white"/>
</g>
<defs>
<clipPath id="clip0_862_2371">
<rect width="49" height="48" fill="white"/>
</clipPath>
</defs>
</svg>
