<svg width="51" height="51" viewBox="0 0 51 51" fill="none" xmlns="http://www.w3.org/2000/svg">
<g clip-path="url(#clip0_862_2403)">
<path d="M35.7239 24.0262V24.3179H41.7793V14.9326H25.6947V15.2242L25.9402 15.3778C26.0834 15.1526 26.1704 15.0042 26.2573 14.8763C27.3671 13.208 28.4769 11.5346 29.597 9.87656C29.6481 9.7998 29.6941 9.72304 29.7248 9.64116C29.7555 9.55929 29.776 9.46717 29.776 9.37506C29.776 9.28295 29.7555 9.19083 29.7248 9.10895C29.6941 9.02708 29.6481 8.95032 29.597 8.87355C28.4769 7.21552 27.3671 5.54213 26.2573 3.87386C26.1755 3.75104 26.0937 3.61799 25.9658 3.41329L25.7203 3.56681V3.8585H41.7844V0.675481H41.4929V0.967173H44.4132V0.675481H44.1216V24.323H50.3253V24.0313H50.0338V50.3194H50.3253V50.0277H35.7239V50.3194H36.0154V24.0313H35.7239H35.4324V50.6111H50.6168V23.7396H44.4132V24.0313H44.7047V0.383789H41.2014V3.56681H41.4929V3.27512H25.1987L25.4799 3.72033C25.6027 3.91991 25.6845 4.05808 25.7766 4.19625C26.8864 5.86452 27.9962 7.53791 29.1213 9.20107C29.1571 9.25224 29.1776 9.29318 29.1878 9.31877L29.1981 9.37506L29.1827 9.43135C29.1725 9.46206 29.152 9.49788 29.1162 9.54905C27.9911 11.2122 26.8864 12.8856 25.7715 14.5487C25.6743 14.6972 25.5873 14.8456 25.4493 15.0656L25.168 15.5108H41.4878V15.2191H41.1962V24.0211H41.4878V23.7294H35.4324V24.0211H35.7239V24.0262Z" fill="white"/>
<path d="M35.7236 24.0262H35.3401V24.7017H42.1626V14.5488H25.3109V15.4392L26.0627 15.91L26.2673 15.5825C26.4105 15.3522 26.4974 15.2089 26.5741 15.0912C27.6839 13.4229 28.7937 11.7495 29.9138 10.0966C29.9752 10.0045 30.0365 9.90217 30.0826 9.78447C30.1286 9.66165 30.1593 9.5286 30.1593 9.38019V9.36484L29.7757 9.38019H30.1593C30.1593 9.23179 30.1286 9.09874 30.0826 8.97592C30.0365 8.85822 29.9752 8.75587 29.9138 8.66376C28.7937 7.00572 27.689 5.33745 26.5741 3.66918C26.5025 3.56171 26.4207 3.42354 26.2928 3.21373L26.0883 2.88621L25.3365 3.35701V4.24744H42.1677V0.291692H41.109V1.35099H44.7964V0.291692H43.7378V24.7068H50.7086V23.6475H49.6499V50.7032H50.7086V49.6439H35.3401V50.7032H36.3987V23.6475H35.3401V24.323H36.1072V23.6475H35.0486V50.9949H51.0001V23.3558H44.0293V24.4151H45.088V0H40.8175V3.95063H41.8762V2.89133H24.5028L25.1472 3.92505C25.27 4.11951 25.3518 4.25768 25.4541 4.4112C26.5639 6.07947 27.6737 7.75286 28.7989 9.41601L28.8193 9.45184L28.8602 9.43648L28.8142 9.45184L28.8551 9.43648L28.8091 9.45184L29.1671 9.31367L28.7937 9.39555L28.804 9.45184L29.1773 9.36996L28.804 9.28808L28.7886 9.34437L29.162 9.42625L28.804 9.28808L28.85 9.30343L28.8091 9.28296L28.8551 9.30343L28.8142 9.28296L28.7886 9.3239C27.6635 10.9871 26.5537 12.6604 25.4439 14.3287C25.3365 14.4925 25.2495 14.6358 25.1114 14.8558L24.4619 15.8895H41.8557V14.8302H40.797V24.3998H41.8557V23.3405H35.0332V24.3998H35.7083V24.016V23.6321H35.4168V24.016H35.8004V23.7243H35.4168V24.1081H41.4721V23.7243H41.0886V24.016H41.4721V23.6321H41.1806V24.016H41.5642V15.214H41.1806V15.5978H41.4721V15.214H41.0886V15.5057H41.4721V15.1219H25.1523V15.5057L25.4797 15.7104L25.7609 15.2652C25.9042 15.04 25.986 14.8967 26.078 14.7586C27.1878 13.0903 28.2977 11.4169 29.4177 9.75888C29.4637 9.68724 29.4995 9.63095 29.5251 9.5593L29.5353 9.53371L29.5558 9.44672L29.5762 9.36484L29.5455 9.22667V9.20108L29.5302 9.1755C29.5046 9.10897 29.4688 9.04756 29.4228 8.97592C28.2977 7.31788 27.193 5.64449 26.0832 3.97622C25.9962 3.84828 25.9195 3.71011 25.7916 3.51054L25.5155 3.06532L25.1881 3.27002V3.65382H41.4824V3.27002H41.0988V3.56171H41.4824V3.1779H41.1909V3.56171H41.5744V0.383805H41.1909V0.76761H44.6942V0.383805H44.3106V24.0313H44.6942V23.6475H44.4026V24.0313H44.7862V23.7396H44.4026V24.1234H50.6063V23.7396H50.2227V50.6111H50.6063V50.2273H35.4219V50.6111H35.8055V24.0313H35.4219V24.4151H35.7134V24.0313H35.3298V24.323H36.097V24.0313H35.7134V24.4151H36.0049V24.0313H35.6214V50.3194H36.0049V49.9356H35.7134V50.3194H36.097V50.0277H35.7134V50.4115H50.3148V50.0277H49.9312V50.3194H50.3148V49.9356H50.0233V50.3194H50.4069V24.0313H50.0233V24.4151H50.3148V24.0313H49.9312V24.323H50.3148V23.9392H44.1111V24.323H44.4947V0.675497H44.1111V1.0593H44.4026V0.675497H44.0191V0.967188H44.4026V0.583384H41.4824V0.967188H41.8659V0.675497H41.4824V1.0593H41.7739V0.675497H41.3903V3.85852H41.7739V3.47471H25.7098V3.85852H26.0934V3.78176L26.1599 3.74082L25.9553 3.41331L25.628 3.618C25.7558 3.81758 25.8326 3.95575 25.9246 4.0888C27.0344 5.75707 28.1442 7.43046 29.2643 9.0885C29.3052 9.14991 29.3307 9.20108 29.3512 9.24714L29.3768 9.37508V9.38531L29.7245 9.38019H29.3768V9.39043L29.7245 9.38019H29.3768L29.3512 9.50813C29.3307 9.5593 29.3052 9.60536 29.2643 9.66677C28.1391 11.3248 27.0344 12.9982 25.9246 14.6665C25.8274 14.8098 25.7456 14.953 25.6024 15.1782L25.9297 15.3829L26.1343 15.0554L26.0678 15.0144V14.9377H25.6842V15.3215H41.7688V14.9377H41.3852V24.323H41.7688V23.9392H35.7134V24.323H36.097V23.6475H35.7134V24.0313L35.7236 24.0262Z" fill="white"/>
<path d="M0.675305 50.3245H0.966822V44.4497H0.675305V44.7414H9.75322V38.621H9.46171V38.9127H21.4036V32.823H21.1121V33.1147H32.7472V32.823H32.4557V50.3296H32.7472V50.0379H0.675305V50.3296V50.6213H33.0387V32.5313H20.8206V38.621H21.1121V38.3293H9.17019V44.4497H9.46171V44.158H0.383789V50.6162H0.675305V50.3245Z" fill="white"/>
<path d="M0.67509 50.3245V50.7083H1.35018V44.0659H0.291516V45.1252H10.1366V38.2372H9.07792V39.2965H21.787V32.4392H20.7283V33.4985H33.1306V32.4392H32.0719V50.7134H33.1306V49.6541H0.291516V50.7134H0.966606V49.9458H0.291516V51.0051H33.4221V32.1475H20.4368V39.0048H21.4955V37.9455H8.7864V44.8336H9.84507V43.7743H0V51H1.05866V50.3245H0.67509H0.291516V50.6162H0.67509V50.2324H0.383574V50.6162H0.767148V44.1581H0.383574V44.5419H9.46149V44.1581H9.07792V44.4497H9.46149V44.0659H9.16998V44.4497H9.55355V38.3293H9.16998V38.7131H21.1119V38.3293H20.7283V38.621H21.1119V38.2372H20.8204V38.621H21.204V32.5313H20.8204V32.9151H33.0385V32.5313H32.6549V50.6213H33.0385V50.2375H0.67509V50.6213H1.05866V50.3296H0.67509V50.7134H0.966606V49.9458H0.67509V50.3296H1.05866V50.0379H0.67509V50.4218H32.747V50.0379H32.3634V50.3296H32.747V49.9458H32.4555V50.3296H32.839V32.823H32.4555V33.2068H32.747V32.823H32.3634V33.1147H32.747V32.7309H21.1119V33.1147H21.4955V32.823H21.1119V33.2068H21.4034V32.823H21.0199V38.9127H21.4034V38.5289H9.46149V38.9127H9.84507V38.621H9.46149V39.0048H9.75301V38.621H9.36943V44.7414H9.75301V44.3576H0.67509V44.7414H1.05866V44.4497H0.67509V44.8336H0.966606V44.4497H0.583032V50.3245H0.966606V49.9407H0.291516V50.3245H0.67509Z" fill="white"/>
</g>
<defs>
<clipPath id="clip0_862_2403">
<rect width="51" height="51" fill="white"/>
</clipPath>
</defs>
</svg>
