<?xml version="1.0" encoding="UTF-8"?>
<svg id="Icon_Monthly_Commitment" data-name="Icon_Monthly Commitment" xmlns="http://www.w3.org/2000/svg" viewBox="0 0 50 50">
  <defs>
    <style>
      .cls-1 {
        fill: #fff;
        stroke-width: 0px;
      }
    </style>
  </defs>
  <path class="cls-1" d="m15.17,29.56v.6c2.85,0,5.17-2.31,5.17-5.17,0-2.85-2.31-5.17-5.17-5.17-2.85,0-5.17,2.31-5.17,5.17,0,2.85,2.31,5.17,5.17,5.17v-1.21c-1.1,0-2.08-.44-2.8-1.16-.72-.72-1.16-1.71-1.16-2.8,0-1.1.44-2.08,1.16-2.8.72-.72,1.71-1.16,2.8-1.16,1.1,0,2.08.44,2.8,1.16.72.72,1.16,1.71,1.16,2.8,0,1.1-.44,2.08-1.16,2.8-.72.72-1.71,1.16-2.8,1.16v.6Z"/>
  <path class="cls-1" d="m32.41,38.19v.6c2.85,0,5.17-2.31,5.17-5.17,0-2.85-2.31-5.17-5.17-5.17-2.85,0-5.17,2.31-5.17,5.17,0,2.85,2.31,5.17,5.17,5.17v-1.21c-1.1,0-2.08-.44-2.8-1.16-.72-.72-1.16-1.71-1.16-2.8,0-1.1.44-2.08,1.16-2.8.72-.72,1.71-1.16,2.8-1.16,1.1,0,2.08.44,2.8,1.16.72.72,1.16,1.71,1.16,2.8,0,1.1-.44,2.08-1.16,2.8-.72.72-1.71,1.16-2.8,1.16v.6Z"/>
  <path class="cls-1" d="m32.41,20.94v.6c2.85,0,5.17-2.31,5.17-5.17,0-2.85-2.31-5.17-5.17-5.17-2.85,0-5.17,2.31-5.17,5.17,0,2.85,2.31,5.17,5.17,5.17v-1.21c-1.1,0-2.08-.44-2.8-1.16-.72-.72-1.16-1.71-1.16-2.8,0-1.1.44-2.08,1.16-2.8.72-.72,1.71-1.16,2.8-1.16,1.1,0,2.08.44,2.8,1.16.72.72,1.16,1.71,1.16,2.8,0,1.1-.44,2.08-1.16,2.8-.72.72-1.71,1.16-2.8,1.16v.6Z"/>
  <path class="cls-1" d="m19.51,23.51l9.09-4.56c.3-.15.42-.51.27-.81s-.51-.42-.81-.27l-9.09,4.56c-.3.15-.42.51-.27.81s.51.42.81.27"/>
  <path class="cls-1" d="m18.97,27.57l9.09,4.56c.3.15.66.03.81-.27.15-.3.03-.66-.27-.81l-9.09-4.56c-.3-.15-.66-.03-.81.27s-.03.66.27.81"/>
  <path class="cls-1" d="m48.79,25c0,6.57-2.66,12.52-6.97,16.83-4.31,4.31-10.25,6.97-16.83,6.97-6.57,0-12.52-2.66-16.83-6.97C3.87,37.52,1.21,31.57,1.21,25c0-6.57,2.66-12.52,6.97-16.83C12.48,3.87,18.43,1.21,25,1.21c.33,0,.6-.27.6-.6s-.27-.6-.6-.6C11.19,0,0,11.19,0,25c0,13.81,11.19,25,25,25,13.81,0,25-11.19,25-25,0-.33-.27-.6-.6-.6s-.6.27-.6.6Z"/>
  <path class="cls-1" d="m31.9,2.22c7.38,2.23,13.25,7.96,15.68,15.26.11.32.45.49.76.38.32-.11.49-.45.38-.76-2.55-7.67-8.72-13.68-16.48-16.03-.32-.1-.65.08-.75.4-.1.32.08.65.4.75Z"/>
</svg>