<?xml version="1.0" encoding="UTF-8"?>
<svg id="Icon_Monthly_Commitment" data-name="Icon_Monthly Commitment" xmlns="http://www.w3.org/2000/svg" viewBox="0 0 50 50">
  <defs>
    <style>
      .cls-1 {
        fill: #fff;
        stroke-width: 0px;
      }
    </style>
  </defs>
  <path class="cls-1" d="m25.86,38.56l-.24-.62c-.2.08-.41.12-.62.12-.21,0-.42-.04-.62-.12-4.18-1.61-7.78-4.44-10.31-8.13-2.53-3.69-3.89-8.06-3.89-12.53h0v-7.16c0-.46.18-.89.5-1.22.32-.32.76-.5,1.22-.5h26.2c.46,0,.89.18,1.22.5.32.32.5.76.5,1.22v7.15h0c0,4.49-1.36,8.86-3.89,12.54-2.54,3.69-6.13,6.53-10.31,8.13l.24.62.24.62c4.43-1.7,8.24-4.71,10.93-8.62,2.68-3.91,4.12-8.54,4.12-13.28h0v-7.16c0-.81-.32-1.58-.89-2.15-.57-.57-1.34-.89-2.15-.89H11.9c-.81,0-1.58.32-2.15.89-.57.57-.89,1.34-.89,2.15v7.15h0c0,4.75,1.44,9.38,4.12,13.29,2.69,3.91,6.5,6.92,10.93,8.62.35.14.72.2,1.09.2.37,0,.74-.07,1.09-.2l-.24-.62Z"/>
  <path class="cls-1" d="m31.84,15.69l-9.3,10.46-4.44-3.33c-.22-.16-.53-.12-.7.1-.17.22-.12.53.1.7l4.8,3.6c.21.16.5.13.67-.07l9.61-10.81c.18-.21.16-.52-.04-.7s-.52-.16-.7.04Z"/>
  <path class="cls-1" d="m2.24,2.23c.58-.58,1.36-.9,2.18-.9h41.16c.82,0,1.6.32,2.18.9.58.58.9,1.36.9,2.18v11.25c0,7.1-2.15,14.04-6.18,19.9-4.03,5.86-9.74,10.36-16.38,12.91h0c-.36.14-.73.21-1.11.21-.38,0-.75-.07-1.11-.21h0c-6.64-2.55-12.35-7.05-16.37-12.91C3.49,29.7,1.34,22.76,1.34,15.65v-.02c0-.37-.3-.66-.66-.66S.01,15.27.01,15.63v.02C.01,23.03,2.25,30.23,6.42,36.3c4.18,6.08,10.1,10.76,16.99,13.4h0c.51.2,1.05.29,1.59.29.54,0,1.08-.1,1.59-.3h.02s-.02,0-.02,0c6.89-2.65,12.82-7.32,16.99-13.4,4.17-6.08,6.41-13.28,6.41-20.65V4.41c0-1.17-.46-2.29-1.29-3.12C47.87.46,46.75,0,45.58,0H4.42c-1.17,0-2.29.46-3.12,1.29-.26.26-.26.68,0,.94.26.26.68.26.94,0Z"/>
</svg>