<?xml version="1.0" encoding="UTF-8"?>
<svg id="Icon_Monthly_Commitment" data-name="Icon_Monthly Commitment" xmlns="http://www.w3.org/2000/svg" viewBox="0 0 50 50">
  <defs>
    <style>
      .cls-1 {
        fill: #fff;
        stroke-width: 0px;
      }
    </style>
  </defs>
  <path class="cls-1" d="m24.55,16.99v9.16c0,.17.1.33.25.41l5.95,2.98c.22.11.5.02.61-.2.11-.22.02-.5-.2-.61l-5.7-2.85v-8.88c0-.25-.2-.45-.45-.45s-.45.2-.45.45Z"/>
  <path class="cls-1" d="m38.9,28.3c-1.49,6.3-7.15,10.98-13.9,10.98-3.94,0-7.51-1.6-10.1-4.18-2.58-2.59-4.18-6.15-4.18-10.1,0-3.94,1.6-7.51,4.18-10.1,2.59-2.58,6.15-4.18,10.1-4.18,5.51,0,10.29,3.12,12.67,7.69.15.3.52.41.82.26s.41-.52.26-.82c-2.58-4.96-7.77-8.34-13.75-8.34-8.56,0-15.49,6.94-15.49,15.49,0,8.56,6.94,15.49,15.49,15.49,7.33,0,13.46-5.08,15.08-11.92.08-.33-.12-.65-.45-.73-.33-.08-.65.12-.73.45h0Z"/>
  <path class="cls-1" d="m38.07,12.74v5.12h-5.12c-.33,0-.61.27-.61.61s.27.61.61.61h5.73c.16,0,.32-.06.43-.18.11-.11.18-.27.18-.43v-5.72c0-.33-.27-.61-.61-.61s-.61.27-.61.61Z"/>
  <path class="cls-1" d="m48.79,25c0,6.57-2.66,12.52-6.97,16.83-4.31,4.31-10.25,6.97-16.83,6.97-6.57,0-12.52-2.66-16.83-6.97C3.87,37.52,1.21,31.57,1.21,25c0-6.57,2.66-12.52,6.97-16.83C12.48,3.87,18.43,1.21,25,1.21c.33,0,.6-.27.6-.6s-.27-.6-.6-.6C11.19,0,0,11.19,0,25c0,13.81,11.19,25,25,25,13.81,0,25-11.19,25-25,0-.33-.27-.6-.6-.6s-.6.27-.6.6h0Z"/>
  <path class="cls-1" d="m31.9,2.22c7.38,2.23,13.25,7.96,15.68,15.26.11.32.45.49.76.38.32-.11.49-.45.38-.76-2.55-7.67-8.72-13.68-16.48-16.03-.32-.1-.65.08-.75.4-.1.32.08.65.4.75Z"/>
</svg>