<svg width="225" height="45" viewBox="0 0 225 45" fill="none" xmlns="http://www.w3.org/2000/svg">
<g clip-path="url(#clip0_522_1220)">
<path d="M148.666 11.3666C146.247 9.08422 142.598 7.88208 137.473 7.88208C134.644 7.88208 132.06 8.13201 129.887 8.46249V35.9733C131.691 36.1819 133.824 36.3058 136.365 36.3058C141.737 36.3058 146 34.8951 148.584 32.2801C151.168 29.7085 152.562 25.9741 152.562 21.4092C152.562 16.8444 151.127 13.649 148.666 11.3666ZM137.063 33.3996C135.669 33.3996 134.356 33.3583 133.454 33.191V11.1188C134.397 10.9101 135.791 10.7449 137.636 10.7449C145.18 10.7449 148.87 14.9359 148.829 21.5332C148.829 29.0848 144.688 33.4017 137.061 33.4017L137.063 33.3996Z" fill="#171721"/>
<path d="M163.299 15.5183C157.517 15.5183 153.992 20.2897 153.992 26.3479C153.992 32.4061 157.641 36.4731 163.75 36.4731C166.907 36.4731 169.081 35.808 170.351 35.2276L169.736 32.6126C168.383 33.1931 166.826 33.6516 164.242 33.6516C160.633 33.6516 157.517 31.6171 157.435 26.6804H171.375C171.416 26.3066 171.498 25.7262 171.498 24.9784C171.498 21.2853 169.775 15.5183 163.297 15.5183H163.299ZM168.014 24.0655H157.476C157.764 21.5331 159.362 18.1312 163.011 18.1312C167.071 18.1312 168.054 21.7418 168.014 24.0655Z" fill="#171721"/>
<path d="M182.946 15.5183C179.666 15.5183 177.37 17.3856 176.386 19.2941H176.305L176.101 15.9748H172.902C173.025 17.6355 173.066 19.3354 173.066 21.4113V36.0579H176.674V23.9829C176.674 23.3611 176.756 22.7373 176.921 22.2809C177.535 20.2484 179.38 18.5464 181.76 18.5464C185.162 18.5464 186.352 21.244 186.352 24.4806V36.0579H189.961V24.0655C189.961 17.1769 185.697 15.5183 182.95 15.5183H182.946Z" fill="#171721"/>
<path d="M197.37 10.2057L193.843 11.16V15.9726H190.768V18.7528H193.843V29.7064C193.843 32.0714 194.213 33.856 195.237 34.9342C196.099 35.9298 197.452 36.4689 199.131 36.4689C200.525 36.4689 201.634 36.2623 202.33 35.9711L202.166 33.2322C201.715 33.3561 201.017 33.4821 200.074 33.4821C198.066 33.4821 197.368 32.0714 197.368 29.5804V18.7508H202.534V15.9706H197.368V10.2036L197.37 10.2057Z" fill="#171721"/>
<path d="M219.024 23.7329C219.024 19.7093 217.549 15.5183 211.481 15.5183C208.981 15.5183 206.601 16.2227 204.962 17.3029L205.783 19.7093C207.177 18.7963 209.103 18.2159 210.948 18.2159C215.008 18.2159 215.459 21.2027 215.459 22.8633V23.2785C207.791 23.2372 203.527 25.8935 203.527 30.7475C203.527 33.6516 205.576 36.5144 209.595 36.5144C212.424 36.5144 214.557 35.1037 215.663 33.5277H215.785L216.073 36.058H219.353C219.108 34.6885 219.024 32.9865 219.024 31.2453V23.735V23.7329ZM215.538 29.2933C215.538 29.6672 215.457 30.0824 215.334 30.4562C214.761 32.1562 213.12 33.8168 210.538 33.8168C208.693 33.8168 207.134 32.6973 207.134 30.3323C207.134 26.4305 211.603 25.7262 215.538 25.8088V29.2954V29.2933Z" fill="#171721"/>
<path d="M224.999 6.59521H221.391V36.0579H224.999V6.59521Z" fill="#171721"/>
<path d="M61.2836 22.2704C60.8407 21.9048 60.157 21.4979 59.2324 21.1303C58.3487 20.7647 57.6649 20.4796 57.1425 20.3165C56.6608 20.112 55.8954 19.8682 54.8096 19.5026C50.5073 18.16 49.1398 17.183 49.1398 15.0659C49.1398 12.9487 50.8685 11.5256 53.5626 11.5256C56.2567 11.5256 58.3078 12.8681 59.4732 15.5141L63.3735 13.2358C61.5632 9.3299 58.065 6.96899 53.5626 6.96899C51.0685 6.96899 48.9378 7.70226 47.1683 9.20803C45.3987 10.6725 44.515 12.6678 44.515 15.1898C44.515 17.7118 45.4396 19.6266 47.2499 20.9278C49.1398 22.1899 50.4665 22.7187 53.1605 23.5325C55.5321 24.2657 57.222 24.9577 58.1466 25.567C59.0712 26.1784 59.5549 27.0315 59.5549 28.213C59.5549 30.452 57.8262 31.9578 54.328 31.9578C50.8297 31.9578 48.4561 30.3715 47.3315 27.1554L43.3496 29.5163C44.8375 33.8705 48.7786 36.5164 54.2075 36.5164C57.1833 36.5164 59.5957 35.7831 61.406 34.2774C63.2551 32.7716 64.1797 30.6957 64.1797 28.1324C64.3797 25.4059 62.7714 23.4519 61.2836 22.2725V22.2704Z" fill="#171721"/>
<path d="M84.8875 29.6775L80.7056 15.636H76.5645L72.3417 29.6775L68.4414 15.636H63.8574L70.1701 35.9835H74.4317L78.6544 22.2705L82.8363 35.9835H87.0999L93.4126 15.636H88.8286L84.8875 29.6775Z" fill="#171721"/>
<path d="M99.1537 15.6382H94.8105V35.9857H99.1537V15.6382Z" fill="#171721"/>
<path d="M103.655 15.2292V15.6361H100.6V19.8684H103.655V35.9837H107.998V19.8684H112.743V15.6361H107.998V15.2292C107.998 12.259 109.566 10.9164 112.743 11.2015V6.96918C106.792 6.60358 103.655 9.65437 103.655 15.2292Z" fill="#171721"/>
<path d="M122.102 9.93945L117.759 11.2407V15.6362H114.059V19.8685H117.759V29.6364C117.759 34.9675 120.453 36.7996 127.088 35.9858V32.0386C123.792 32.2017 122.102 32.241 122.102 29.6384V19.8705H127.088V15.6383H122.102V9.94152V9.93945Z" fill="#171721"/>
<path d="M27.4362 12.1743L25.3565 14.2667L30.9916 19.9696C33.8428 22.8552 33.8428 27.5522 30.9916 30.4377L19.1152 42.4571L21.1378 44.4937L33.8918 31.6626C37.4513 28.081 37.4513 22.252 33.8918 18.6725L27.4362 12.1764V12.1743Z" fill="#171721"/>
<path d="M28.6295 22.3593L22.9883 16.6501L20.982 18.6702L25.7599 23.4767C26.6845 24.4083 26.6845 25.9223 25.7599 26.8518L14.6836 37.9953L16.747 40.0712L28.6315 28.0436C30.1806 26.4759 30.1806 23.9249 28.6315 22.3593H28.6295Z" fill="#171721"/>
<path d="M5.5004 14.0022L17.3849 1.97465L15.4236 0L2.66958 12.8311C-0.889861 16.4127 -0.889861 22.2416 2.66958 25.8212L9.12515 32.3173L11.1947 30.2352L5.49836 24.4703C2.64713 21.5848 2.64713 16.8878 5.49836 14.0022H5.5004Z" fill="#171721"/>
<path d="M10.804 21.0147C9.87946 20.0853 9.87946 18.5692 10.804 17.6397L21.8803 6.49613L19.7516 4.3645L7.86299 16.3942C6.3139 17.9619 6.3139 20.5128 7.86299 22.0785L13.5634 27.8475L15.5819 25.8212L10.804 21.0127V21.0147Z" fill="#171721"/>
</g>
<defs>
<clipPath id="clip0_522_1220">
<rect width="225" height="44.4915" fill="white"/>
</clipPath>
</defs>
</svg>
