<?xml version="1.0" encoding="UTF-8"?>
<svg id="Layer_1" data-name="Layer 1" xmlns="http://www.w3.org/2000/svg" viewBox="0 0 76 86">
  <defs>
    <style>
      .cls-1 {
        fill: #fff;
        stroke-width: 0px;
      }
    </style>
  </defs>
  <path class="cls-1" d="M72.17,12.51c-3-1.74-3.99-1.83-8.1-.75-.45.11-.87.2-1.28.25-.41-.05-.83-.13-1.27-.25-4.12-1.08-5.11-.99-8.09.74-2.9,1.53-4.41,5.72-3.66,10.2.36,2.18.94,3.51,1.45,4.68.66,1.51,1.17,2.69,1.17,5.42,0,5.77,2.23,8.79,4.44,8.79,2.34,0,3.25-2.44,4.9-6.87.49-1.33.96-1.72,1.04-1.76,0,0,.48.18,1.06,1.76,1.66,4.43,2.57,6.87,4.9,6.87,2.21,0,4.44-3.02,4.44-8.79,0-2.71.51-3.89,1.16-5.38.51-1.18,1.09-2.51,1.46-4.72.74-4.47-.75-8.65-3.64-10.19h0ZM73.69,22.35c-.33,1.96-.83,3.1-1.31,4.23-.69,1.58-1.34,3.08-1.34,6.24,0,4.73-1.62,6.65-2.3,6.65-.79,0-1.63-2.07-2.9-5.47-.78-2.08-1.81-3.15-3.05-3.15-.86,0-2.1.55-3.07,3.15-1.27,3.4-2.11,5.47-2.9,5.47-.68,0-2.3-1.91-2.3-6.65,0-3.17-.66-4.68-1.35-6.27-.49-1.11-.98-2.26-1.31-4.18-.59-3.52.49-6.87,2.59-7.97,2.41-1.4,2.79-1.52,6.5-.54.59.16,1.15.26,1.7.32h.11s.11,0,.11,0c.55-.06,1.11-.16,1.7-.32,3.71-.98,4.1-.86,6.5.54l.04.02c2.06,1.08,3.14,4.43,2.55,7.95h.01Z"/>
  <path class="cls-1" d="M27.37,11l5.99,2.32,2.32,6c.16.41.56.69,1,.69s.84-.27,1-.69l2.32-6,5.99-2.32c.41-.16.69-.56.69-1s-.27-.84-.69-1l-6-2.32-2.32-6c-.16-.41-.56-.69-1-.69s-.84.27-1,.69l-2.32,6-6,2.32c-.41.16-.69.56-.69,1s.27.84.69,1h.01ZM34.58,8.51c.28-.11.51-.33.61-.61l1.49-3.86,1.49,3.86c.11.28.33.51.61.61l3.86,1.49-3.86,1.49c-.28.11-.51.33-.61.61l-1.49,3.86-1.49-3.86c-.11-.28-.33-.51-.61-.61l-3.86-1.49,3.86-1.49Z"/>
  <path class="cls-1" d="M67.44,46.4c-.59,0-1.06.48-1.06,1.06v36.41H2.13v-42.28h48.52c.59,0,1.06-.48,1.06-1.06s-.48-1.06-1.06-1.06H2.13v-14.13h10.72v7.5c0,.59.48,1.06,1.06,1.06s1.06-.48,1.06-1.06v-7.5h31.65c.59,0,1.06-.48,1.06-1.06s-.48-1.06-1.06-1.06H14.97v-6.07c0-.59-.48-1.06-1.06-1.06s-1.06.48-1.06,1.06v6.07H1.06c-.59,0-1.06.48-1.06,1.06v60.67c0,.59.48,1.06,1.06,1.06h66.37c.59,0,1.06-.48,1.06-1.06v-37.47c0-.59-.48-1.06-1.06-1.06h0Z"/>
  <path class="cls-1" d="M15.96,56.66h-6.69v-6.69c0-.44-.36-.8-.8-.8s-.8.36-.8.8v7.49c0,.44.36.8.8.8h7.49c.44,0,.8-.36.8-.8s-.36-.8-.8-.8Z"/>
  <path class="cls-1" d="M30.65,56.66h-6.69v-6.69c0-.44-.36-.8-.8-.8s-.8.36-.8.8v7.49c0,.44.36.8.8.8h7.49c.44,0,.8-.36.8-.8s-.36-.8-.8-.8Z"/>
  <path class="cls-1" d="M45.34,56.66h-6.69v-6.69c0-.44-.36-.8-.8-.8s-.8.36-.8.8v7.49c0,.44.36.8.8.8h7.49c.44,0,.8-.36.8-.8s-.36-.8-.8-.8Z"/>
  <path class="cls-1" d="M52.54,49.16c-.44,0-.8.36-.8.8v7.49c0,.44.36.8.8.8h7.49c.44,0,.8-.36.8-.8s-.36-.8-.8-.8h-6.69v-6.69c0-.44-.36-.8-.8-.8Z"/>
  <path class="cls-1" d="M8.47,65.58c-.44,0-.8.36-.8.8v7.49c0,.44.36.8.8.8h7.49c.44,0,.8-.36.8-.8s-.36-.8-.8-.8h-6.69v-6.69c0-.44-.36-.8-.8-.8Z"/>
  <path class="cls-1" d="M23.16,65.58c-.44,0-.8.36-.8.8v7.49c0,.44.36.8.8.8h7.49c.44,0,.8-.36.8-.8s-.36-.8-.8-.8h-6.69v-6.69c0-.44-.36-.8-.8-.8Z"/>
  <path class="cls-1" d="M37.85,65.58c-.44,0-.8.36-.8.8v7.49c0,.44.36.8.8.8h7.49c.44,0,.8-.36.8-.8s-.36-.8-.8-.8h-6.69v-6.69c0-.44-.36-.8-.8-.8Z"/>
  <path class="cls-1" d="M51.73,73.87c0,.44.36.8.8.8h7.49c.44,0,.8-.36.8-.8s-.36-.8-.8-.8h-6.69v-6.69c0-.44-.36-.8-.8-.8s-.8.36-.8.8v7.49Z"/>
</svg>